<svg xmlns="http://www.w3.org/2000/svg" xmlns:xlink="http://www.w3.org/1999/xlink" width="500" zoomAndPan="magnify" viewBox="0 0 375 374.999991" height="500" preserveAspectRatio="xMidYMid meet" version="1.0"><defs><filter x="0%" y="0%" width="100%" height="100%" id="2abb5ae42e"><feColorMatrix values="0 0 0 0 1 0 0 0 0 1 0 0 0 0 1 0 0 0 1 0" color-interpolation-filters="sRGB"/></filter><mask id="abf7fccab6"><g filter="url(#2abb5ae42e)"><rect x="-37.5" width="450" fill="#000000" y="-37.499999" height="449.999989" fill-opacity="0.38"/></g></mask><clipPath id="3e18f18c54"><path d="M 0 0 L 375 0 L 375 375 L 0 375 Z M 0 0 " clip-rule="nonzero"/></clipPath><clipPath id="5fa9b17008"><rect x="0" width="375" y="0" height="375"/></clipPath></defs><g mask="url(#abf7fccab6)"><g transform="matrix(1, 0, 0, 1, 0, 0)"><g clip-path="url(#5fa9b17008)"><g clip-path="url(#3e18f18c54)"><path fill="#ba862e" d="M 363.949219 11.035156 C 363.671875 5.925781 360.292969 1.632812 355.667969 0 L 347.421875 0 C 342.800781 1.632812 339.421875 5.925781 339.144531 11.035156 C 334.035156 11.3125 329.742188 14.691406 328.109375 19.3125 C 326.476562 14.691406 322.179688 11.3125 317.074219 11.035156 C 316.796875 5.925781 313.417969 1.632812 308.792969 0 L 300.550781 0 C 295.925781 1.632812 292.546875 5.925781 292.269531 11.035156 C 287.164062 11.3125 282.867188 14.691406 281.238281 19.3125 C 279.605469 14.691406 275.308594 11.3125 270.203125 11.035156 C 269.925781 5.925781 266.546875 1.632812 261.921875 0 L 253.679688 0 C 249.054688 1.632812 245.675781 5.925781 245.398438 11.035156 C 240.289062 11.3125 235.996094 14.691406 234.363281 19.3125 C 232.734375 14.691406 228.433594 11.3125 223.332031 11.035156 C 223.054688 5.925781 219.675781 1.632812 215.050781 0 L 206.808594 0 C 202.183594 1.632812 198.804688 5.925781 198.527344 11.035156 C 193.417969 11.3125 189.125 14.691406 187.492188 19.3125 C 185.859375 14.691406 181.566406 11.3125 176.457031 11.035156 C 176.179688 5.925781 172.800781 1.632812 168.179688 0 L 159.933594 0 C 155.3125 1.632812 151.929688 5.925781 151.652344 11.035156 C 146.546875 11.3125 142.25 14.691406 140.621094 19.3125 C 138.988281 14.691406 134.695312 11.3125 129.585938 11.035156 C 129.308594 5.925781 125.929688 1.632812 121.304688 0 L 113.0625 0 C 108.4375 1.632812 105.058594 5.925781 104.78125 11.035156 C 99.671875 11.3125 95.378906 14.691406 93.75 19.3125 C 92.117188 14.691406 87.824219 11.3125 82.714844 11.035156 C 82.4375 5.925781 79.058594 1.632812 74.433594 0 L 66.191406 0 C 61.566406 1.632812 58.1875 5.925781 57.910156 11.035156 C 52.800781 11.3125 48.507812 14.691406 46.875 19.3125 C 45.246094 14.691406 40.949219 11.3125 35.84375 11.035156 C 35.566406 5.925781 32.1875 1.632812 27.5625 0 L 19.316406 0 C 14.695312 1.632812 11.316406 5.925781 11.039062 11.035156 C 5.929688 11.3125 1.636719 14.691406 0.00390625 19.3125 L 0.00390625 27.558594 C 1.636719 32.183594 5.929688 35.5625 11.039062 35.839844 C 11.316406 40.945312 14.695312 45.242188 19.316406 46.871094 C 14.695312 48.503906 11.316406 52.796875 11.039062 57.90625 C 5.929688 58.183594 1.636719 61.5625 0.00390625 66.1875 L 0.00390625 74.429688 C 1.636719 79.054688 5.929688 82.433594 11.039062 82.710938 C 11.316406 87.820312 14.695312 92.113281 19.316406 93.746094 C 14.695312 95.375 11.316406 99.671875 11.039062 104.777344 C 5.929688 105.054688 1.636719 108.433594 0.00390625 113.058594 L 0.00390625 121.300781 C 1.636719 125.925781 5.929688 129.304688 11.039062 129.582031 C 11.316406 134.691406 14.695312 138.984375 19.316406 140.617188 C 14.695312 142.246094 11.316406 146.542969 11.039062 151.648438 C 5.929688 151.925781 1.636719 155.308594 0.00390625 159.929688 L 0.00390625 168.175781 C 1.636719 172.796875 5.929688 176.175781 11.039062 176.457031 C 11.316406 181.5625 14.695312 185.855469 19.316406 187.488281 C 14.695312 189.121094 11.316406 193.417969 11.039062 198.527344 C 5.929688 198.804688 1.636719 202.183594 0.00390625 206.808594 L 0.00390625 215.050781 C 1.636719 219.675781 5.929688 223.054688 11.039062 223.332031 C 11.316406 228.4375 14.695312 232.738281 19.316406 234.367188 C 14.695312 236 11.316406 240.296875 11.039062 245.40625 C 5.929688 245.683594 1.636719 249.0625 0.00390625 253.6875 L 0.00390625 261.929688 C 1.636719 266.554688 5.929688 269.933594 11.039062 270.210938 C 11.316406 275.320312 14.695312 279.617188 19.316406 281.25 C 14.695312 282.878906 11.316406 287.175781 11.039062 292.285156 C 5.929688 292.5625 1.636719 295.941406 0.00390625 300.566406 L 0.00390625 308.808594 C 1.636719 313.433594 5.929688 316.8125 11.039062 317.089844 C 11.316406 322.199219 14.695312 326.496094 19.316406 328.128906 C 14.695312 329.757812 11.316406 334.058594 11.039062 339.164062 C 5.929688 339.441406 1.636719 342.820312 0.00390625 347.445312 L 0.00390625 355.6875 C 1.636719 360.3125 5.929688 363.691406 11.039062 363.96875 C 11.316406 369.078125 14.695312 373.375 19.316406 375.007812 L 27.5625 375.007812 C 32.1875 373.375 35.566406 369.078125 35.84375 363.96875 C 40.949219 363.691406 45.246094 360.3125 46.875 355.6875 C 48.507812 360.3125 52.800781 363.691406 57.910156 363.96875 C 58.1875 369.078125 61.566406 373.375 66.191406 375.007812 L 74.433594 375.007812 C 79.058594 373.375 82.4375 369.078125 82.714844 363.96875 C 87.824219 363.691406 92.117188 360.3125 93.75 355.6875 C 95.378906 360.3125 99.671875 363.691406 104.78125 363.96875 C 105.058594 369.078125 108.4375 373.375 113.0625 375.007812 L 121.304688 375.007812 C 125.929688 373.375 129.308594 369.078125 129.585938 363.96875 C 134.695312 363.691406 138.988281 360.3125 140.621094 355.6875 C 142.25 360.3125 146.546875 363.691406 151.652344 363.96875 C 151.929688 369.078125 155.3125 373.375 159.933594 375.007812 L 168.179688 375.007812 C 172.800781 373.375 176.179688 369.078125 176.457031 363.96875 C 181.566406 363.691406 185.859375 360.3125 187.492188 355.6875 C 189.125 360.3125 193.421875 363.691406 198.527344 363.96875 C 198.804688 369.078125 202.183594 373.375 206.808594 375.007812 L 215.050781 375.007812 C 219.675781 373.375 223.054688 369.078125 223.332031 363.96875 C 228.4375 363.691406 232.734375 360.3125 234.363281 355.6875 C 235.996094 360.3125 240.292969 363.691406 245.398438 363.96875 C 245.675781 369.078125 249.054688 373.375 253.679688 375.007812 L 261.921875 375.007812 C 266.546875 373.375 269.925781 369.078125 270.203125 363.96875 C 275.3125 363.691406 279.605469 360.3125 281.238281 355.6875 C 282.867188 360.3125 287.167969 363.691406 292.269531 363.96875 C 292.546875 369.078125 295.925781 373.375 300.550781 375.007812 L 308.792969 375.007812 C 313.417969 373.375 316.796875 369.078125 317.074219 363.96875 C 322.183594 363.691406 326.476562 360.3125 328.109375 355.6875 C 329.742188 360.3125 334.039062 363.691406 339.144531 363.96875 C 339.421875 369.078125 342.800781 373.375 347.421875 375.007812 L 355.667969 375.007812 C 360.292969 373.375 363.671875 369.078125 363.949219 363.96875 C 369.054688 363.691406 373.351562 360.3125 374.980469 355.6875 L 374.980469 347.445312 C 373.351562 342.820312 369.050781 339.441406 363.949219 339.164062 C 363.671875 334.058594 360.292969 329.757812 355.667969 328.128906 C 360.292969 326.496094 363.671875 322.199219 363.949219 317.089844 C 369.054688 316.8125 373.351562 313.433594 374.980469 308.808594 L 374.980469 300.566406 C 373.351562 295.941406 369.050781 292.5625 363.949219 292.285156 C 363.671875 287.175781 360.292969 282.878906 355.667969 281.25 C 360.292969 279.617188 363.671875 275.320312 363.949219 270.210938 C 369.054688 269.933594 373.351562 266.554688 374.980469 261.929688 L 374.980469 253.6875 C 373.351562 249.0625 369.050781 245.683594 363.949219 245.40625 C 363.671875 240.296875 360.292969 236 355.667969 234.367188 C 360.292969 232.738281 363.671875 228.4375 363.949219 223.332031 C 369.054688 223.054688 373.351562 219.675781 374.980469 215.050781 L 374.980469 206.808594 C 373.351562 202.183594 369.050781 198.804688 363.949219 198.527344 C 363.671875 193.417969 360.292969 189.125 355.667969 187.488281 C 360.292969 185.855469 363.671875 181.5625 363.949219 176.457031 C 369.054688 176.175781 373.351562 172.796875 374.980469 168.175781 L 374.980469 159.929688 C 373.351562 155.308594 369.050781 151.925781 363.949219 151.648438 C 363.671875 146.542969 360.292969 142.246094 355.667969 140.617188 C 360.292969 138.984375 363.671875 134.691406 363.949219 129.582031 C 369.054688 129.304688 373.351562 125.925781 374.980469 121.300781 L 374.980469 113.058594 C 373.351562 108.433594 369.050781 105.054688 363.949219 104.777344 C 363.671875 99.671875 360.292969 95.375 355.667969 93.746094 C 360.292969 92.113281 363.671875 87.820312 363.949219 82.710938 C 369.054688 82.433594 373.351562 79.054688 374.980469 74.429688 L 374.980469 66.1875 C 373.351562 61.5625 369.050781 58.183594 363.949219 57.90625 C 363.671875 52.796875 360.292969 48.503906 355.667969 46.871094 C 360.292969 45.242188 363.671875 40.945312 363.949219 35.839844 C 369.054688 35.5625 373.351562 32.183594 374.980469 27.558594 L 374.980469 19.3125 C 373.351562 14.691406 369.050781 11.3125 363.949219 11.035156 Z M 339.140625 35.84375 C 339.417969 40.949219 342.796875 45.246094 347.417969 46.875 C 342.796875 48.507812 339.417969 52.800781 339.140625 57.910156 C 334.03125 58.1875 329.738281 61.566406 328.105469 66.191406 C 326.472656 61.566406 322.175781 58.1875 317.070312 57.910156 C 316.792969 52.800781 313.414062 48.507812 308.789062 46.875 C 313.414062 45.246094 316.792969 40.949219 317.070312 35.84375 C 322.179688 35.566406 326.472656 32.1875 328.105469 27.5625 C 329.738281 32.1875 334.035156 35.566406 339.140625 35.84375 Z M 57.855469 82.726562 C 58.132812 87.832031 61.511719 92.128906 66.136719 93.757812 C 61.511719 95.390625 58.132812 99.683594 57.855469 104.792969 C 52.75 105.070312 48.453125 108.449219 46.824219 113.074219 C 45.191406 108.449219 40.898438 105.070312 35.789062 104.792969 C 35.511719 99.683594 32.132812 95.390625 27.507812 93.757812 C 32.132812 92.128906 35.511719 87.832031 35.789062 82.726562 C 40.898438 82.449219 45.191406 79.070312 46.824219 74.445312 C 48.453125 79.070312 52.75 82.449219 57.855469 82.726562 Z M 104.738281 82.726562 C 105.015625 87.832031 108.394531 92.128906 113.015625 93.757812 C 108.394531 95.390625 105.015625 99.683594 104.738281 104.792969 C 99.628906 105.070312 95.335938 108.449219 93.703125 113.074219 C 92.070312 108.449219 87.777344 105.070312 82.667969 104.792969 C 82.390625 99.683594 79.011719 95.390625 74.390625 93.757812 C 79.011719 92.128906 82.390625 87.832031 82.667969 82.726562 C 87.777344 82.449219 92.070312 79.070312 93.703125 74.445312 C 95.335938 79.070312 99.628906 82.449219 104.738281 82.726562 Z M 151.617188 82.726562 C 151.894531 87.832031 155.273438 92.128906 159.898438 93.757812 C 155.273438 95.390625 151.894531 99.683594 151.617188 104.792969 C 146.507812 105.070312 142.214844 108.449219 140.582031 113.074219 C 138.953125 108.449219 134.65625 105.070312 129.550781 104.792969 C 129.273438 99.683594 125.894531 95.390625 121.269531 93.757812 C 125.894531 92.128906 129.273438 87.832031 129.550781 82.726562 C 134.65625 82.449219 138.953125 79.070312 140.582031 74.445312 C 142.214844 79.070312 146.507812 82.449219 151.617188 82.726562 Z M 198.496094 82.726562 C 198.773438 87.832031 202.152344 92.128906 206.777344 93.757812 C 202.152344 95.390625 198.773438 99.683594 198.496094 104.792969 C 193.386719 105.070312 189.09375 108.449219 187.460938 113.074219 C 185.832031 108.449219 181.535156 105.070312 176.429688 104.792969 C 176.152344 99.683594 172.773438 95.390625 168.148438 93.757812 C 172.773438 92.128906 176.152344 87.832031 176.429688 82.726562 C 181.535156 82.449219 185.832031 79.070312 187.460938 74.445312 C 189.09375 79.070312 193.390625 82.449219 198.496094 82.726562 Z M 245.375 82.726562 C 245.652344 87.832031 249.03125 92.128906 253.65625 93.757812 C 249.03125 95.390625 245.652344 99.683594 245.375 104.792969 C 240.269531 105.070312 235.972656 108.449219 234.34375 113.074219 C 232.710938 108.449219 228.414062 105.070312 223.308594 104.792969 C 223.03125 99.683594 219.652344 95.390625 215.027344 93.757812 C 219.652344 92.128906 223.03125 87.832031 223.308594 82.726562 C 228.417969 82.449219 232.710938 79.070312 234.34375 74.445312 C 235.972656 79.070312 240.273438 82.449219 245.375 82.726562 Z M 292.253906 82.726562 C 292.53125 87.832031 295.910156 92.128906 300.535156 93.757812 C 295.910156 95.390625 292.53125 99.683594 292.253906 104.792969 C 287.148438 105.070312 282.851562 108.449219 281.222656 113.074219 C 279.589844 108.449219 275.292969 105.070312 270.1875 104.792969 C 269.910156 99.683594 266.53125 95.390625 261.90625 93.757812 C 266.53125 92.128906 269.910156 87.832031 270.1875 82.726562 C 275.296875 82.449219 279.589844 79.070312 281.222656 74.445312 C 282.851562 79.070312 287.152344 82.449219 292.253906 82.726562 Z M 104.738281 129.605469 C 105.015625 134.714844 108.394531 139.007812 113.015625 140.640625 C 108.394531 142.269531 105.015625 146.566406 104.738281 151.671875 C 99.628906 151.949219 95.335938 155.328125 93.703125 159.953125 C 92.070312 155.328125 87.777344 151.949219 82.667969 151.671875 C 82.390625 146.566406 79.011719 142.269531 74.390625 140.640625 C 79.011719 139.007812 82.390625 134.714844 82.667969 129.605469 C 87.777344 129.328125 92.070312 125.949219 93.703125 121.324219 C 95.335938 125.949219 99.628906 129.328125 104.738281 129.605469 Z M 151.617188 129.605469 C 151.894531 134.714844 155.273438 139.007812 159.898438 140.640625 C 155.273438 142.269531 151.894531 146.566406 151.617188 151.671875 C 146.507812 151.949219 142.214844 155.328125 140.582031 159.953125 C 138.953125 155.328125 134.65625 151.949219 129.550781 151.671875 C 129.273438 146.566406 125.894531 142.269531 121.269531 140.640625 C 125.894531 139.007812 129.273438 134.714844 129.550781 129.605469 C 134.65625 129.328125 138.953125 125.949219 140.582031 121.324219 C 142.214844 125.949219 146.507812 129.328125 151.617188 129.605469 Z M 198.496094 129.605469 C 198.773438 134.714844 202.152344 139.007812 206.777344 140.640625 C 202.152344 142.269531 198.773438 146.566406 198.496094 151.671875 C 193.386719 151.949219 189.09375 155.328125 187.460938 159.953125 C 185.832031 155.328125 181.535156 151.949219 176.429688 151.671875 C 176.152344 146.566406 172.773438 142.269531 168.148438 140.640625 C 172.773438 139.007812 176.152344 134.714844 176.429688 129.605469 C 181.535156 129.328125 185.832031 125.949219 187.460938 121.324219 C 189.09375 125.949219 193.390625 129.328125 198.496094 129.605469 Z M 245.375 129.605469 C 245.652344 134.714844 249.03125 139.007812 253.65625 140.640625 C 249.03125 142.269531 245.652344 146.566406 245.375 151.671875 C 240.269531 151.949219 235.972656 155.328125 234.34375 159.953125 C 232.710938 155.328125 228.414062 151.949219 223.308594 151.671875 C 223.03125 146.566406 219.652344 142.269531 215.027344 140.640625 C 219.652344 139.007812 223.03125 134.714844 223.308594 129.605469 C 228.417969 129.328125 232.710938 125.949219 234.34375 121.324219 C 235.972656 125.949219 240.273438 129.328125 245.375 129.605469 Z M 292.253906 129.605469 C 292.53125 134.714844 295.910156 139.007812 300.535156 140.640625 C 295.910156 142.269531 292.53125 146.566406 292.253906 151.671875 C 287.148438 151.949219 282.851562 155.328125 281.222656 159.953125 C 279.589844 155.328125 275.292969 151.949219 270.1875 151.671875 C 269.910156 146.566406 266.53125 142.269531 261.90625 140.640625 C 266.53125 139.007812 269.910156 134.714844 270.1875 129.605469 C 275.296875 129.328125 279.589844 125.949219 281.222656 121.324219 C 282.851562 125.949219 287.152344 129.328125 292.253906 129.605469 Z M 104.738281 176.484375 C 105.015625 181.59375 108.394531 185.886719 113.015625 187.519531 C 108.394531 189.148438 105.015625 193.449219 104.738281 198.554688 C 99.628906 198.832031 95.335938 202.210938 93.703125 206.835938 C 92.070312 202.210938 87.777344 198.832031 82.667969 198.554688 C 82.390625 193.449219 79.011719 189.152344 74.390625 187.519531 C 79.011719 185.886719 82.390625 181.59375 82.667969 176.484375 C 87.777344 176.207031 92.070312 172.828125 93.703125 168.203125 C 95.335938 172.828125 99.628906 176.207031 104.738281 176.484375 Z M 94.40625 164.078125 C 94.40625 158.003906 99.347656 153.058594 105.421875 153.058594 C 105.8125 153.058594 106.128906 152.746094 106.128906 152.355469 C 106.128906 146.28125 111.070312 141.335938 117.148438 141.335938 C 123.222656 141.335938 128.164062 146.28125 128.164062 152.355469 C 128.164062 152.746094 128.480469 153.058594 128.871094 153.058594 C 134.945312 153.058594 139.890625 158.003906 139.890625 164.078125 C 139.890625 170.15625 134.945312 175.097656 128.871094 175.097656 C 128.480469 175.097656 128.164062 175.414062 128.164062 175.800781 C 128.164062 181.878906 123.222656 186.820312 117.148438 186.820312 C 111.070312 186.820312 106.128906 181.878906 106.128906 175.800781 C 106.128906 175.414062 105.8125 175.097656 105.421875 175.097656 C 99.347656 175.097656 94.40625 170.15625 94.40625 164.078125 Z M 105.421875 199.941406 C 105.8125 199.941406 106.128906 199.625 106.128906 199.234375 C 106.128906 193.160156 111.070312 188.214844 117.148438 188.214844 C 123.222656 188.214844 128.164062 193.160156 128.164062 199.234375 C 128.164062 199.625 128.480469 199.941406 128.871094 199.941406 C 134.945312 199.941406 139.890625 204.882812 139.890625 210.957031 C 139.890625 217.035156 134.945312 221.976562 128.871094 221.976562 C 128.480469 221.976562 128.164062 222.292969 128.164062 222.683594 C 128.164062 228.757812 123.222656 233.699219 117.148438 233.699219 C 111.070312 233.699219 106.128906 228.757812 106.128906 222.683594 C 106.128906 222.292969 105.8125 221.976562 105.421875 221.976562 C 99.347656 221.976562 94.40625 217.035156 94.40625 210.957031 C 94.40625 204.882812 99.347656 199.941406 105.421875 199.941406 Z M 129.550781 198.550781 C 129.273438 193.445312 125.894531 189.148438 121.269531 187.515625 C 125.894531 185.882812 129.273438 181.589844 129.550781 176.480469 C 134.65625 176.203125 138.953125 172.824219 140.582031 168.199219 C 142.214844 172.824219 146.507812 176.203125 151.617188 176.480469 C 151.894531 181.589844 155.273438 185.882812 159.898438 187.515625 C 155.273438 189.144531 151.894531 193.445312 151.617188 198.550781 C 146.507812 198.828125 142.214844 202.207031 140.582031 206.832031 C 138.953125 202.207031 134.65625 198.828125 129.550781 198.550781 Z M 141.289062 164.074219 C 141.289062 158 146.230469 153.054688 152.304688 153.054688 C 152.695312 153.054688 153.011719 152.742188 153.011719 152.351562 C 153.011719 146.277344 157.953125 141.332031 164.03125 141.332031 C 170.105469 141.332031 175.046875 146.277344 175.046875 152.351562 C 175.046875 152.742188 175.363281 153.054688 175.753906 153.054688 C 181.828125 153.054688 186.773438 158 186.773438 164.074219 C 186.773438 170.152344 181.828125 175.09375 175.753906 175.09375 C 175.363281 175.09375 175.046875 175.410156 175.046875 175.796875 C 175.046875 181.875 170.105469 186.816406 164.03125 186.816406 C 157.953125 186.816406 153.011719 181.875 153.011719 175.796875 C 153.011719 175.410156 152.695312 175.09375 152.304688 175.09375 C 146.230469 175.09375 141.289062 170.152344 141.289062 164.074219 Z M 152.304688 199.9375 C 152.695312 199.9375 153.011719 199.621094 153.011719 199.230469 C 153.011719 193.15625 157.953125 188.210938 164.03125 188.210938 C 170.105469 188.210938 175.046875 193.15625 175.046875 199.230469 C 175.046875 199.621094 175.363281 199.9375 175.753906 199.9375 C 181.828125 199.9375 186.773438 204.878906 186.773438 210.953125 C 186.773438 217.03125 181.828125 221.972656 175.753906 221.972656 C 175.363281 221.972656 175.046875 222.289062 175.046875 222.679688 C 175.046875 228.753906 170.105469 233.695312 164.03125 233.695312 C 157.953125 233.695312 153.011719 228.753906 153.011719 222.679688 C 153.011719 222.289062 152.695312 221.972656 152.304688 221.972656 C 146.230469 221.972656 141.289062 217.03125 141.289062 210.953125 C 141.289062 204.878906 146.230469 199.9375 152.304688 199.9375 Z M 176.433594 198.546875 C 176.15625 193.441406 172.777344 189.144531 168.152344 187.511719 C 172.777344 185.878906 176.15625 181.585938 176.433594 176.476562 C 181.539062 176.199219 185.835938 172.820312 187.464844 168.195312 C 189.097656 172.820312 193.394531 176.199219 198.5 176.476562 C 198.777344 181.585938 202.15625 185.878906 206.78125 187.511719 C 202.15625 189.144531 198.777344 193.441406 198.5 198.546875 C 193.390625 198.824219 189.097656 202.207031 187.464844 206.828125 C 185.835938 202.207031 181.539062 198.824219 176.433594 198.546875 Z M 188.171875 164.070312 C 188.171875 157.996094 193.113281 153.054688 199.191406 153.054688 C 199.578125 153.054688 199.894531 152.738281 199.894531 152.347656 C 199.894531 146.273438 204.839844 141.328125 210.914062 141.328125 C 216.988281 141.328125 221.933594 146.273438 221.933594 152.347656 C 221.933594 152.738281 222.246094 153.054688 222.636719 153.054688 C 228.710938 153.054688 233.65625 157.996094 233.65625 164.070312 C 233.65625 170.148438 228.710938 175.089844 222.636719 175.089844 C 222.246094 175.089844 221.933594 175.40625 221.933594 175.796875 C 221.933594 181.871094 216.988281 186.8125 210.914062 186.8125 C 204.839844 186.8125 199.894531 181.871094 199.894531 175.796875 C 199.894531 175.40625 199.578125 175.089844 199.191406 175.089844 C 193.113281 175.089844 188.171875 170.148438 188.171875 164.070312 Z M 199.191406 199.933594 C 199.578125 199.933594 199.894531 199.617188 199.894531 199.226562 C 199.894531 193.152344 204.839844 188.207031 210.914062 188.207031 C 216.988281 188.207031 221.933594 193.152344 221.933594 199.226562 C 221.933594 199.617188 222.246094 199.933594 222.636719 199.933594 C 228.710938 199.933594 233.65625 204.875 233.65625 210.949219 C 233.65625 217.027344 228.710938 221.96875 222.636719 221.96875 C 222.246094 221.96875 221.933594 222.285156 221.933594 222.675781 C 221.933594 228.75 216.988281 233.691406 210.914062 233.691406 C 204.839844 233.691406 199.894531 228.75 199.894531 222.675781 C 199.894531 222.285156 199.578125 221.96875 199.191406 221.96875 C 193.113281 221.96875 188.171875 217.027344 188.171875 210.949219 C 188.171875 204.875 193.113281 199.933594 199.191406 199.933594 Z M 223.316406 198.542969 C 223.039062 193.4375 219.660156 189.144531 215.035156 187.507812 C 219.660156 185.875 223.039062 181.582031 223.316406 176.472656 C 228.425781 176.195312 232.71875 172.816406 234.351562 168.191406 C 235.980469 172.816406 240.277344 176.195312 245.382812 176.472656 C 245.660156 181.582031 249.039062 185.875 253.664062 187.507812 C 249.039062 189.140625 245.660156 193.4375 245.382812 198.542969 C 240.273438 198.824219 235.980469 202.203125 234.351562 206.824219 C 232.71875 202.203125 228.421875 198.824219 223.316406 198.542969 Z M 235.054688 164.066406 C 235.054688 157.992188 239.996094 153.050781 246.074219 153.050781 C 246.464844 153.050781 246.777344 152.734375 246.777344 152.34375 C 246.777344 146.269531 251.722656 141.324219 257.796875 141.324219 C 263.871094 141.324219 268.816406 146.269531 268.816406 152.34375 C 268.816406 152.734375 269.128906 153.050781 269.519531 153.050781 C 275.597656 153.050781 280.539062 157.992188 280.539062 164.066406 C 280.539062 170.144531 275.597656 175.085938 269.519531 175.085938 C 269.128906 175.085938 268.816406 175.402344 268.816406 175.792969 C 268.816406 181.867188 263.871094 186.808594 257.796875 186.808594 C 251.722656 186.808594 246.777344 181.867188 246.777344 175.792969 C 246.777344 175.402344 246.464844 175.085938 246.074219 175.085938 C 239.996094 175.085938 235.054688 170.144531 235.054688 164.066406 Z M 246.074219 199.929688 C 246.464844 199.929688 246.777344 199.613281 246.777344 199.222656 C 246.777344 193.148438 251.722656 188.203125 257.796875 188.203125 C 263.871094 188.203125 268.816406 193.148438 268.816406 199.222656 C 268.816406 199.613281 269.128906 199.929688 269.519531 199.929688 C 275.597656 199.929688 280.539062 204.871094 280.539062 210.949219 C 280.539062 217.023438 275.597656 221.964844 269.519531 221.964844 C 269.128906 221.964844 268.816406 222.28125 268.816406 222.671875 C 268.816406 228.746094 263.871094 233.691406 257.796875 233.691406 C 251.722656 233.691406 246.777344 228.746094 246.777344 222.671875 C 246.777344 222.28125 246.464844 221.964844 246.074219 221.964844 C 239.996094 221.964844 235.054688 217.023438 235.054688 210.949219 C 235.054688 204.871094 239.996094 199.929688 246.074219 199.929688 Z M 270.199219 198.542969 C 269.921875 193.433594 266.542969 189.140625 261.917969 187.503906 C 266.542969 185.871094 269.921875 181.578125 270.199219 176.46875 C 275.308594 176.191406 279.601562 172.8125 281.234375 168.1875 C 282.863281 172.8125 287.164062 176.191406 292.265625 176.46875 C 292.542969 181.578125 295.921875 185.871094 300.546875 187.503906 C 295.921875 189.136719 292.542969 193.433594 292.265625 198.542969 C 287.160156 198.820312 282.863281 202.199219 281.234375 206.820312 C 279.601562 202.199219 275.304688 198.820312 270.199219 198.542969 Z M 269.511719 128.203125 C 269.125 128.203125 268.808594 128.519531 268.808594 128.90625 C 268.808594 134.984375 263.863281 139.925781 257.789062 139.925781 C 251.714844 139.925781 246.769531 134.984375 246.769531 128.90625 C 246.769531 128.519531 246.457031 128.203125 246.066406 128.203125 C 239.988281 128.203125 235.046875 123.261719 235.046875 117.183594 C 235.046875 111.109375 239.988281 106.164062 246.066406 106.164062 C 246.457031 106.164062 246.769531 105.851562 246.769531 105.460938 C 246.769531 99.386719 251.714844 94.441406 257.789062 94.441406 C 263.863281 94.441406 268.808594 99.386719 268.808594 105.460938 C 268.808594 105.851562 269.125 106.164062 269.511719 106.164062 C 275.589844 106.164062 280.53125 111.109375 280.53125 117.183594 C 280.53125 123.261719 275.589844 128.203125 269.511719 128.203125 Z M 222.632812 128.203125 C 222.242188 128.203125 221.929688 128.519531 221.929688 128.90625 C 221.929688 134.984375 216.984375 139.925781 210.910156 139.925781 C 204.835938 139.925781 199.890625 134.984375 199.890625 128.90625 C 199.890625 128.519531 199.578125 128.203125 199.1875 128.203125 C 193.109375 128.203125 188.167969 123.261719 188.167969 117.183594 C 188.167969 111.109375 193.109375 106.164062 199.1875 106.164062 C 199.578125 106.164062 199.890625 105.851562 199.890625 105.460938 C 199.890625 99.386719 204.835938 94.441406 210.910156 94.441406 C 216.984375 94.441406 221.929688 99.386719 221.929688 105.460938 C 221.929688 105.851562 222.242188 106.164062 222.632812 106.164062 C 228.710938 106.164062 233.652344 111.109375 233.652344 117.183594 C 233.652344 123.261719 228.710938 128.203125 222.632812 128.203125 Z M 175.753906 128.203125 C 175.363281 128.203125 175.046875 128.519531 175.046875 128.90625 C 175.046875 134.984375 170.105469 139.925781 164.03125 139.925781 C 157.953125 139.925781 153.011719 134.984375 153.011719 128.90625 C 153.011719 128.519531 152.695312 128.203125 152.304688 128.203125 C 146.230469 128.203125 141.289062 123.261719 141.289062 117.183594 C 141.289062 111.109375 146.230469 106.164062 152.304688 106.164062 C 152.695312 106.164062 153.011719 105.851562 153.011719 105.460938 C 153.011719 99.386719 157.953125 94.441406 164.03125 94.441406 C 170.105469 94.441406 175.046875 99.386719 175.046875 105.460938 C 175.046875 105.851562 175.363281 106.164062 175.753906 106.164062 C 181.828125 106.164062 186.773438 111.109375 186.773438 117.183594 C 186.773438 123.261719 181.828125 128.203125 175.753906 128.203125 Z M 128.875 128.203125 C 128.484375 128.203125 128.167969 128.519531 128.167969 128.90625 C 128.167969 134.984375 123.226562 139.925781 117.152344 139.925781 C 111.074219 139.925781 106.132812 134.984375 106.132812 128.90625 C 106.132812 128.519531 105.816406 128.203125 105.425781 128.203125 C 99.351562 128.203125 94.40625 123.261719 94.40625 117.183594 C 94.40625 111.109375 99.351562 106.164062 105.425781 106.164062 C 105.816406 106.164062 106.132812 105.851562 106.132812 105.460938 C 106.132812 99.386719 111.074219 94.441406 117.152344 94.441406 C 123.226562 94.441406 128.167969 99.386719 128.167969 105.460938 C 128.167969 105.851562 128.484375 106.164062 128.875 106.164062 C 134.949219 106.164062 139.894531 111.109375 139.894531 117.183594 C 139.894531 123.261719 134.949219 128.203125 128.875 128.203125 Z M 81.996094 128.203125 C 81.605469 128.203125 81.289062 128.519531 81.289062 128.90625 C 81.289062 134.984375 76.347656 139.925781 70.269531 139.925781 C 64.195312 139.925781 59.253906 134.984375 59.253906 128.90625 C 59.253906 128.519531 58.9375 128.203125 58.546875 128.203125 C 52.472656 128.203125 47.527344 123.261719 47.527344 117.183594 C 47.527344 111.109375 52.472656 106.164062 58.546875 106.164062 C 58.9375 106.164062 59.253906 105.851562 59.253906 105.460938 C 59.253906 99.386719 64.195312 94.441406 70.269531 94.441406 C 76.347656 94.441406 81.289062 99.386719 81.289062 105.460938 C 81.289062 105.851562 81.605469 106.164062 81.996094 106.164062 C 88.070312 106.164062 93.011719 111.109375 93.011719 117.183594 C 93.011719 123.261719 88.070312 128.203125 81.996094 128.203125 Z M 81.289062 152.347656 C 81.289062 152.738281 81.605469 153.054688 81.996094 153.054688 C 88.070312 153.054688 93.011719 157.996094 93.011719 164.070312 C 93.011719 170.148438 88.070312 175.089844 81.996094 175.089844 C 81.605469 175.089844 81.289062 175.40625 81.289062 175.796875 C 81.289062 181.871094 76.347656 186.8125 70.269531 186.8125 C 64.195312 186.8125 59.253906 181.871094 59.253906 175.796875 C 59.253906 175.40625 58.9375 175.089844 58.546875 175.089844 C 52.472656 175.089844 47.527344 170.148438 47.527344 164.070312 C 47.527344 157.996094 52.472656 153.054688 58.546875 153.054688 C 58.9375 153.054688 59.253906 152.738281 59.253906 152.347656 C 59.253906 146.273438 64.195312 141.328125 70.269531 141.328125 C 76.347656 141.328125 81.289062 146.273438 81.289062 152.347656 Z M 81.289062 199.226562 C 81.289062 199.617188 81.605469 199.933594 81.996094 199.933594 C 88.070312 199.933594 93.011719 204.875 93.011719 210.949219 C 93.011719 217.027344 88.070312 221.96875 81.996094 221.96875 C 81.605469 221.96875 81.289062 222.285156 81.289062 222.675781 C 81.289062 228.75 76.347656 233.691406 70.269531 233.691406 C 64.195312 233.691406 59.253906 228.75 59.253906 222.675781 C 59.253906 222.285156 58.9375 221.96875 58.546875 221.96875 C 52.472656 221.96875 47.527344 217.027344 47.527344 210.949219 C 47.527344 204.875 52.472656 199.933594 58.546875 199.933594 C 58.9375 199.933594 59.253906 199.617188 59.253906 199.226562 C 59.253906 193.152344 64.195312 188.207031 70.269531 188.207031 C 76.347656 188.207031 81.289062 193.152344 81.289062 199.226562 Z M 81.289062 246.105469 C 81.289062 246.496094 81.605469 246.8125 81.996094 246.8125 C 88.070312 246.8125 93.011719 251.753906 93.011719 257.832031 C 93.011719 263.90625 88.070312 268.847656 81.996094 268.847656 C 81.605469 268.847656 81.289062 269.164062 81.289062 269.554688 C 81.289062 275.628906 76.347656 280.574219 70.269531 280.574219 C 64.195312 280.574219 59.253906 275.628906 59.253906 269.554688 C 59.253906 269.164062 58.9375 268.847656 58.546875 268.847656 C 52.472656 268.847656 47.527344 263.90625 47.527344 257.832031 C 47.527344 251.753906 52.472656 246.8125 58.546875 246.8125 C 58.9375 246.8125 59.253906 246.496094 59.253906 246.105469 C 59.253906 240.03125 64.195312 235.089844 70.269531 235.089844 C 76.347656 235.089844 81.289062 240.03125 81.289062 246.105469 Z M 82.675781 245.425781 C 82.398438 240.316406 79.019531 236.019531 74.394531 234.386719 C 79.019531 232.753906 82.398438 228.457031 82.675781 223.351562 C 87.785156 223.074219 92.078125 219.691406 93.710938 215.070312 C 95.34375 219.691406 99.636719 223.074219 104.746094 223.351562 C 105.023438 228.457031 108.402344 232.753906 113.023438 234.386719 C 108.402344 236.019531 105.023438 240.316406 104.746094 245.425781 C 99.636719 245.703125 95.34375 249.082031 93.710938 253.707031 C 92.078125 249.082031 87.785156 245.703125 82.675781 245.425781 Z M 105.429688 246.8125 C 105.820312 246.8125 106.136719 246.496094 106.136719 246.105469 C 106.136719 240.03125 111.078125 235.089844 117.152344 235.089844 C 123.230469 235.089844 128.171875 240.03125 128.171875 246.105469 C 128.171875 246.496094 128.488281 246.8125 128.878906 246.8125 C 134.953125 246.8125 139.898438 251.753906 139.898438 257.832031 C 139.898438 263.90625 134.953125 268.847656 128.878906 268.847656 C 128.488281 268.847656 128.171875 269.164062 128.171875 269.554688 C 128.171875 275.628906 123.230469 280.574219 117.152344 280.574219 C 111.078125 280.574219 106.136719 275.628906 106.136719 269.554688 C 106.136719 269.164062 105.820312 268.847656 105.429688 268.847656 C 99.355469 268.847656 94.410156 263.90625 94.410156 257.832031 C 94.410156 251.753906 99.355469 246.8125 105.429688 246.8125 Z M 129.558594 245.425781 C 129.277344 240.316406 125.898438 236.019531 121.277344 234.386719 C 125.898438 232.753906 129.277344 228.457031 129.558594 223.351562 C 134.664062 223.074219 138.957031 219.691406 140.589844 215.070312 C 142.222656 219.691406 146.515625 223.074219 151.625 223.351562 C 151.902344 228.457031 155.28125 232.753906 159.90625 234.386719 C 155.28125 236.019531 151.902344 240.316406 151.625 245.425781 C 146.515625 245.703125 142.222656 249.082031 140.589844 253.707031 C 138.957031 249.082031 134.664062 245.703125 129.558594 245.425781 Z M 152.308594 246.8125 C 152.699219 246.8125 153.015625 246.496094 153.015625 246.105469 C 153.015625 240.03125 157.957031 235.089844 164.035156 235.089844 C 170.109375 235.089844 175.050781 240.03125 175.050781 246.105469 C 175.050781 246.496094 175.367188 246.8125 175.757812 246.8125 C 181.832031 246.8125 186.777344 251.753906 186.777344 257.832031 C 186.777344 263.90625 181.832031 268.847656 175.757812 268.847656 C 175.367188 268.847656 175.050781 269.164062 175.050781 269.554688 C 175.050781 275.628906 170.109375 280.574219 164.035156 280.574219 C 157.957031 280.574219 153.015625 275.628906 153.015625 269.554688 C 153.015625 269.164062 152.699219 268.847656 152.308594 268.847656 C 146.234375 268.847656 141.292969 263.90625 141.292969 257.832031 C 141.292969 251.753906 146.234375 246.8125 152.308594 246.8125 Z M 176.4375 245.425781 C 176.160156 240.316406 172.78125 236.019531 168.15625 234.386719 C 172.78125 232.753906 176.160156 228.457031 176.4375 223.351562 C 181.542969 223.074219 185.839844 219.691406 187.46875 215.070312 C 189.101562 219.691406 193.398438 223.074219 198.503906 223.351562 C 198.78125 228.457031 202.160156 232.753906 206.785156 234.386719 C 202.160156 236.019531 198.78125 240.316406 198.503906 245.425781 C 193.394531 245.703125 189.101562 249.082031 187.46875 253.707031 C 185.839844 249.082031 181.542969 245.703125 176.4375 245.425781 Z M 199.191406 246.8125 C 199.578125 246.8125 199.894531 246.496094 199.894531 246.105469 C 199.894531 240.03125 204.839844 235.089844 210.914062 235.089844 C 216.988281 235.089844 221.933594 240.03125 221.933594 246.105469 C 221.933594 246.496094 222.246094 246.8125 222.636719 246.8125 C 228.710938 246.8125 233.65625 251.753906 233.65625 257.832031 C 233.65625 263.90625 228.710938 268.847656 222.636719 268.847656 C 222.246094 268.847656 221.933594 269.164062 221.933594 269.554688 C 221.933594 275.628906 216.988281 280.574219 210.914062 280.574219 C 204.839844 280.574219 199.894531 275.628906 199.894531 269.554688 C 199.894531 269.164062 199.578125 268.847656 199.191406 268.847656 C 193.113281 268.847656 188.171875 263.90625 188.171875 257.832031 C 188.171875 251.753906 193.113281 246.8125 199.191406 246.8125 Z M 223.316406 245.425781 C 223.039062 240.316406 219.660156 236.019531 215.035156 234.386719 C 219.660156 232.753906 223.039062 228.457031 223.316406 223.351562 C 228.425781 223.074219 232.71875 219.691406 234.351562 215.070312 C 235.980469 219.691406 240.277344 223.074219 245.382812 223.351562 C 245.660156 228.457031 249.039062 232.753906 253.664062 234.386719 C 249.039062 236.019531 245.660156 240.316406 245.382812 245.425781 C 240.273438 245.703125 235.980469 249.082031 234.351562 253.707031 C 232.71875 249.082031 228.421875 245.703125 223.316406 245.425781 Z M 246.070312 246.8125 C 246.460938 246.8125 246.773438 246.496094 246.773438 246.105469 C 246.773438 240.03125 251.71875 235.089844 257.792969 235.089844 C 263.867188 235.089844 268.8125 240.03125 268.8125 246.105469 C 268.8125 246.496094 269.125 246.8125 269.515625 246.8125 C 275.59375 246.8125 280.535156 251.753906 280.535156 257.832031 C 280.535156 263.90625 275.59375 268.847656 269.515625 268.847656 C 269.125 268.847656 268.8125 269.164062 268.8125 269.554688 C 268.8125 275.628906 263.867188 280.574219 257.792969 280.574219 C 251.71875 280.574219 246.773438 275.628906 246.773438 269.554688 C 246.773438 269.164062 246.460938 268.847656 246.070312 268.847656 C 239.992188 268.847656 235.050781 263.90625 235.050781 257.832031 C 235.050781 251.753906 239.992188 246.8125 246.070312 246.8125 Z M 270.195312 245.425781 C 269.917969 240.316406 266.539062 236.019531 261.914062 234.386719 C 266.539062 232.753906 269.917969 228.457031 270.195312 223.351562 C 275.304688 223.074219 279.597656 219.691406 281.230469 215.070312 C 282.859375 219.691406 287.160156 223.074219 292.261719 223.351562 C 292.539062 228.457031 295.917969 232.753906 300.542969 234.386719 C 295.917969 236.019531 292.539062 240.316406 292.261719 245.425781 C 287.15625 245.703125 282.859375 249.082031 281.230469 253.707031 C 279.597656 249.082031 275.300781 245.703125 270.195312 245.425781 Z M 292.949219 246.8125 C 293.339844 246.8125 293.65625 246.496094 293.65625 246.105469 C 293.65625 240.03125 298.597656 235.089844 304.671875 235.089844 C 310.75 235.089844 315.691406 240.03125 315.691406 246.105469 C 315.691406 246.496094 316.007812 246.8125 316.398438 246.8125 C 322.472656 246.8125 327.414062 251.753906 327.414062 257.832031 C 327.414062 263.90625 322.472656 268.847656 316.398438 268.847656 C 316.007812 268.847656 315.691406 269.164062 315.691406 269.554688 C 315.691406 275.628906 310.75 280.574219 304.671875 280.574219 C 298.597656 280.574219 293.65625 275.628906 293.65625 269.554688 C 293.65625 269.164062 293.339844 268.847656 292.949219 268.847656 C 286.875 268.847656 281.929688 263.90625 281.929688 257.832031 C 281.929688 251.753906 286.875 246.8125 292.949219 246.8125 Z M 293.65625 222.667969 C 293.65625 222.277344 293.339844 221.960938 292.949219 221.960938 C 286.875 221.960938 281.929688 217.019531 281.929688 210.945312 C 281.929688 204.867188 286.875 199.925781 292.949219 199.925781 C 293.339844 199.925781 293.65625 199.609375 293.65625 199.21875 C 293.65625 193.144531 298.597656 188.203125 304.671875 188.203125 C 310.75 188.203125 315.691406 193.144531 315.691406 199.21875 C 315.691406 199.609375 316.007812 199.925781 316.398438 199.925781 C 322.472656 199.925781 327.414062 204.867188 327.414062 210.945312 C 327.414062 217.019531 322.472656 221.960938 316.398438 221.960938 C 316.007812 221.960938 315.691406 222.277344 315.691406 222.667969 C 315.691406 228.742188 310.75 233.6875 304.671875 233.6875 C 298.597656 233.6875 293.65625 228.742188 293.65625 222.667969 Z M 293.65625 175.789062 C 293.65625 175.398438 293.339844 175.082031 292.949219 175.082031 C 286.875 175.082031 281.929688 170.140625 281.929688 164.0625 C 281.929688 157.988281 286.875 153.046875 292.949219 153.046875 C 293.339844 153.046875 293.65625 152.730469 293.65625 152.339844 C 293.65625 146.265625 298.597656 141.320312 304.671875 141.320312 C 310.75 141.320312 315.691406 146.265625 315.691406 152.339844 C 315.691406 152.730469 316.007812 153.046875 316.398438 153.046875 C 322.472656 153.046875 327.414062 157.988281 327.414062 164.0625 C 327.414062 170.140625 322.472656 175.082031 316.398438 175.082031 C 316.007812 175.082031 315.691406 175.398438 315.691406 175.789062 C 315.691406 181.863281 310.75 186.804688 304.671875 186.804688 C 298.597656 186.804688 293.65625 181.863281 293.65625 175.789062 Z M 293.65625 128.90625 C 293.65625 128.519531 293.339844 128.203125 292.949219 128.203125 C 286.875 128.203125 281.929688 123.261719 281.929688 117.183594 C 281.929688 111.109375 286.875 106.164062 292.949219 106.164062 C 293.339844 106.164062 293.65625 105.851562 293.65625 105.460938 C 293.65625 99.386719 298.597656 94.441406 304.671875 94.441406 C 310.75 94.441406 315.691406 99.386719 315.691406 105.460938 C 315.691406 105.851562 316.007812 106.164062 316.398438 106.164062 C 322.472656 106.164062 327.414062 111.109375 327.414062 117.183594 C 327.414062 123.261719 322.472656 128.203125 316.398438 128.203125 C 316.007812 128.203125 315.691406 128.519531 315.691406 128.90625 C 315.691406 134.984375 310.75 139.925781 304.671875 139.925781 C 298.597656 139.925781 293.65625 134.984375 293.65625 128.90625 Z M 293.65625 82.027344 C 293.65625 81.636719 293.339844 81.324219 292.949219 81.324219 C 286.875 81.324219 281.929688 76.378906 281.929688 70.304688 C 281.929688 64.230469 286.875 59.285156 292.949219 59.285156 C 293.339844 59.285156 293.65625 58.972656 293.65625 58.582031 C 293.65625 52.503906 298.597656 47.5625 304.671875 47.5625 C 310.75 47.5625 315.691406 52.503906 315.691406 58.582031 C 315.691406 58.972656 316.007812 59.285156 316.398438 59.285156 C 322.472656 59.285156 327.414062 64.230469 327.414062 70.304688 C 327.414062 76.378906 322.472656 81.324219 316.398438 81.324219 C 316.007812 81.324219 315.691406 81.636719 315.691406 82.027344 C 315.691406 88.105469 310.75 93.046875 304.671875 93.046875 C 298.597656 93.046875 293.65625 88.105469 293.65625 82.027344 Z M 269.507812 81.324219 C 269.121094 81.324219 268.804688 81.636719 268.804688 82.027344 C 268.804688 88.105469 263.863281 93.046875 257.785156 93.046875 C 251.710938 93.046875 246.765625 88.105469 246.765625 82.027344 C 246.765625 81.636719 246.453125 81.324219 246.0625 81.324219 C 239.988281 81.324219 235.042969 76.378906 235.042969 70.304688 C 235.042969 64.230469 239.988281 59.285156 246.0625 59.285156 C 246.453125 59.285156 246.765625 58.972656 246.765625 58.582031 C 246.765625 52.503906 251.710938 47.5625 257.785156 47.5625 C 263.863281 47.5625 268.804688 52.503906 268.804688 58.582031 C 268.804688 58.972656 269.121094 59.285156 269.507812 59.285156 C 275.585938 59.285156 280.527344 64.230469 280.527344 70.304688 C 280.527344 76.378906 275.585938 81.324219 269.507812 81.324219 Z M 222.628906 81.324219 C 222.238281 81.324219 221.925781 81.636719 221.925781 82.027344 C 221.925781 88.105469 216.980469 93.046875 210.90625 93.046875 C 204.832031 93.046875 199.886719 88.105469 199.886719 82.027344 C 199.886719 81.636719 199.574219 81.324219 199.183594 81.324219 C 193.105469 81.324219 188.164062 76.378906 188.164062 70.304688 C 188.164062 64.230469 193.105469 59.285156 199.183594 59.285156 C 199.574219 59.285156 199.886719 58.972656 199.886719 58.582031 C 199.886719 52.503906 204.832031 47.5625 210.90625 47.5625 C 216.980469 47.5625 221.925781 52.503906 221.925781 58.582031 C 221.925781 58.972656 222.238281 59.285156 222.628906 59.285156 C 228.707031 59.285156 233.648438 64.230469 233.648438 70.304688 C 233.648438 76.378906 228.707031 81.324219 222.628906 81.324219 Z M 175.75 81.324219 C 175.359375 81.324219 175.046875 81.636719 175.046875 82.027344 C 175.046875 88.105469 170.101562 93.046875 164.027344 93.046875 C 157.949219 93.046875 153.007812 88.105469 153.007812 82.027344 C 153.007812 81.636719 152.691406 81.324219 152.300781 81.324219 C 146.226562 81.324219 141.285156 76.378906 141.285156 70.304688 C 141.285156 64.230469 146.226562 59.285156 152.300781 59.285156 C 152.691406 59.285156 153.007812 58.972656 153.007812 58.582031 C 153.007812 52.503906 157.949219 47.5625 164.027344 47.5625 C 170.101562 47.5625 175.046875 52.503906 175.046875 58.582031 C 175.046875 58.972656 175.359375 59.285156 175.75 59.285156 C 181.824219 59.285156 186.769531 64.230469 186.769531 70.304688 C 186.769531 76.378906 181.824219 81.324219 175.75 81.324219 Z M 128.871094 81.324219 C 128.480469 81.324219 128.164062 81.636719 128.164062 82.027344 C 128.164062 88.105469 123.222656 93.046875 117.148438 93.046875 C 111.070312 93.046875 106.128906 88.105469 106.128906 82.027344 C 106.128906 81.636719 105.8125 81.324219 105.421875 81.324219 C 99.347656 81.324219 94.40625 76.378906 94.40625 70.304688 C 94.40625 64.230469 99.347656 59.285156 105.421875 59.285156 C 105.8125 59.285156 106.128906 58.972656 106.128906 58.582031 C 106.128906 52.503906 111.070312 47.5625 117.148438 47.5625 C 123.222656 47.5625 128.164062 52.503906 128.164062 58.582031 C 128.164062 58.972656 128.480469 59.285156 128.871094 59.285156 C 134.945312 59.285156 139.890625 64.230469 139.890625 70.304688 C 139.890625 76.378906 134.945312 81.324219 128.871094 81.324219 Z M 81.992188 81.324219 C 81.601562 81.324219 81.285156 81.636719 81.285156 82.027344 C 81.285156 88.105469 76.34375 93.046875 70.265625 93.046875 C 64.191406 93.046875 59.25 88.105469 59.25 82.027344 C 59.25 81.636719 58.933594 81.324219 58.542969 81.324219 C 52.46875 81.324219 47.523438 76.378906 47.523438 70.304688 C 47.523438 64.230469 52.46875 59.285156 58.542969 59.285156 C 58.933594 59.285156 59.25 58.972656 59.25 58.582031 C 59.25 52.503906 64.191406 47.5625 70.265625 47.5625 C 76.34375 47.5625 81.285156 52.503906 81.285156 58.582031 C 81.285156 58.972656 81.601562 59.285156 81.992188 59.285156 C 88.066406 59.285156 93.007812 64.230469 93.007812 70.304688 C 93.007812 76.378906 88.066406 81.324219 81.992188 81.324219 Z M 57.863281 129.589844 C 58.140625 134.699219 61.519531 138.992188 66.144531 140.625 C 61.519531 142.253906 58.140625 146.550781 57.863281 151.65625 C 52.757812 151.933594 48.460938 155.3125 46.832031 159.9375 C 45.199219 155.3125 40.90625 151.933594 35.796875 151.65625 C 35.519531 146.550781 32.140625 142.253906 27.515625 140.625 C 32.140625 138.992188 35.519531 134.699219 35.796875 129.589844 C 40.90625 129.3125 45.199219 125.933594 46.832031 121.308594 C 48.460938 125.933594 52.757812 129.3125 57.863281 129.589844 Z M 57.863281 176.46875 C 58.140625 181.578125 61.519531 185.871094 66.144531 187.503906 C 61.519531 189.136719 58.140625 193.433594 57.863281 198.542969 C 52.757812 198.820312 48.460938 202.199219 46.832031 206.820312 C 45.199219 202.199219 40.90625 198.820312 35.796875 198.542969 C 35.519531 193.433594 32.140625 189.140625 27.515625 187.503906 C 32.140625 185.871094 35.519531 181.578125 35.796875 176.46875 C 40.90625 176.191406 45.199219 172.8125 46.832031 168.1875 C 48.460938 172.8125 52.757812 176.191406 57.863281 176.46875 Z M 57.863281 223.351562 C 58.140625 228.457031 61.519531 232.753906 66.144531 234.386719 C 61.519531 236.019531 58.140625 240.316406 57.863281 245.425781 C 52.757812 245.703125 48.460938 249.082031 46.832031 253.707031 C 45.199219 249.082031 40.90625 245.703125 35.796875 245.425781 C 35.519531 240.316406 32.140625 236.019531 27.515625 234.386719 C 32.140625 232.753906 35.519531 228.457031 35.796875 223.351562 C 40.90625 223.074219 45.199219 219.691406 46.832031 215.070312 C 48.460938 219.691406 52.757812 223.074219 57.863281 223.351562 Z M 57.863281 270.230469 C 58.140625 275.335938 61.519531 279.636719 66.144531 281.265625 C 61.519531 282.898438 58.140625 287.195312 57.863281 292.304688 C 52.757812 292.582031 48.460938 295.960938 46.832031 300.585938 C 45.199219 295.960938 40.90625 292.582031 35.796875 292.304688 C 35.519531 287.195312 32.140625 282.898438 27.515625 281.265625 C 32.140625 279.636719 35.519531 275.335938 35.796875 270.230469 C 40.90625 269.953125 45.199219 266.574219 46.832031 261.949219 C 48.460938 266.574219 52.757812 269.953125 57.863281 270.230469 Z M 58.550781 293.6875 C 58.941406 293.6875 59.257812 293.375 59.257812 292.984375 C 59.257812 286.90625 64.199219 281.964844 70.273438 281.964844 C 76.351562 281.964844 81.292969 286.90625 81.292969 292.984375 C 81.292969 293.375 81.609375 293.6875 82 293.6875 C 88.074219 293.6875 93.015625 298.632812 93.015625 304.707031 C 93.015625 310.78125 88.074219 315.726562 82 315.726562 C 81.609375 315.726562 81.292969 316.039062 81.292969 316.429688 C 81.292969 322.507812 76.351562 327.449219 70.273438 327.449219 C 64.199219 327.449219 59.257812 322.507812 59.257812 316.429688 C 59.257812 316.039062 58.941406 315.726562 58.550781 315.726562 C 52.476562 315.726562 47.53125 310.78125 47.53125 304.707031 C 47.53125 298.632812 52.476562 293.6875 58.550781 293.6875 Z M 82.675781 292.300781 C 82.398438 287.191406 79.019531 282.894531 74.394531 281.261719 C 79.019531 279.632812 82.398438 275.332031 82.675781 270.226562 C 87.785156 269.949219 92.078125 266.570312 93.710938 261.945312 C 95.34375 266.570312 99.636719 269.949219 104.746094 270.226562 C 105.023438 275.332031 108.402344 279.632812 113.023438 281.261719 C 108.402344 282.894531 105.023438 287.191406 104.746094 292.300781 C 99.636719 292.578125 95.34375 295.957031 93.710938 300.582031 C 92.078125 295.957031 87.785156 292.578125 82.675781 292.300781 Z M 105.429688 293.6875 C 105.820312 293.6875 106.136719 293.375 106.136719 292.984375 C 106.136719 286.90625 111.078125 281.964844 117.152344 281.964844 C 123.230469 281.964844 128.171875 286.90625 128.171875 292.984375 C 128.171875 293.375 128.488281 293.6875 128.878906 293.6875 C 134.953125 293.6875 139.898438 298.632812 139.898438 304.707031 C 139.898438 310.78125 134.953125 315.726562 128.878906 315.726562 C 128.488281 315.726562 128.171875 316.039062 128.171875 316.429688 C 128.171875 322.507812 123.230469 327.449219 117.152344 327.449219 C 111.078125 327.449219 106.136719 322.507812 106.136719 316.429688 C 106.136719 316.039062 105.820312 315.726562 105.429688 315.726562 C 99.355469 315.726562 94.410156 310.78125 94.410156 304.707031 C 94.410156 298.632812 99.355469 293.6875 105.429688 293.6875 Z M 129.558594 292.300781 C 129.277344 287.191406 125.898438 282.894531 121.277344 281.261719 C 125.898438 279.632812 129.277344 275.332031 129.558594 270.226562 C 134.664062 269.949219 138.957031 266.570312 140.589844 261.945312 C 142.222656 266.570312 146.515625 269.949219 151.625 270.226562 C 151.902344 275.332031 155.28125 279.632812 159.90625 281.261719 C 155.28125 282.894531 151.902344 287.191406 151.625 292.300781 C 146.515625 292.578125 142.222656 295.957031 140.589844 300.582031 C 138.957031 295.957031 134.664062 292.578125 129.558594 292.300781 Z M 152.308594 293.6875 C 152.699219 293.6875 153.015625 293.375 153.015625 292.984375 C 153.015625 286.90625 157.957031 281.964844 164.035156 281.964844 C 170.109375 281.964844 175.050781 286.90625 175.050781 292.984375 C 175.050781 293.375 175.367188 293.6875 175.757812 293.6875 C 181.832031 293.6875 186.777344 298.632812 186.777344 304.707031 C 186.777344 310.78125 181.832031 315.726562 175.757812 315.726562 C 175.367188 315.726562 175.050781 316.039062 175.050781 316.429688 C 175.050781 322.507812 170.109375 327.449219 164.035156 327.449219 C 157.957031 327.449219 153.015625 322.507812 153.015625 316.429688 C 153.015625 316.039062 152.699219 315.726562 152.308594 315.726562 C 146.234375 315.726562 141.292969 310.78125 141.292969 304.707031 C 141.292969 298.632812 146.234375 293.6875 152.308594 293.6875 Z M 176.4375 292.300781 C 176.160156 287.191406 172.78125 282.894531 168.15625 281.261719 C 172.78125 279.632812 176.160156 275.332031 176.4375 270.226562 C 181.542969 269.949219 185.839844 266.570312 187.46875 261.945312 C 189.101562 266.570312 193.398438 269.949219 198.503906 270.226562 C 198.78125 275.332031 202.160156 279.632812 206.785156 281.261719 C 202.160156 282.894531 198.78125 287.191406 198.503906 292.300781 C 193.394531 292.578125 189.101562 295.957031 187.46875 300.582031 C 185.839844 295.957031 181.542969 292.578125 176.4375 292.300781 Z M 199.191406 293.6875 C 199.578125 293.6875 199.894531 293.375 199.894531 292.984375 C 199.894531 286.90625 204.839844 281.964844 210.914062 281.964844 C 216.988281 281.964844 221.933594 286.90625 221.933594 292.984375 C 221.933594 293.375 222.246094 293.6875 222.636719 293.6875 C 228.710938 293.6875 233.65625 298.632812 233.65625 304.707031 C 233.65625 310.78125 228.710938 315.726562 222.636719 315.726562 C 222.246094 315.726562 221.933594 316.039062 221.933594 316.429688 C 221.933594 322.507812 216.988281 327.449219 210.914062 327.449219 C 204.839844 327.449219 199.894531 322.507812 199.894531 316.429688 C 199.894531 316.039062 199.578125 315.726562 199.191406 315.726562 C 193.113281 315.726562 188.171875 310.78125 188.171875 304.707031 C 188.171875 298.632812 193.113281 293.6875 199.191406 293.6875 Z M 223.316406 292.300781 C 223.039062 287.191406 219.660156 282.894531 215.035156 281.261719 C 219.660156 279.632812 223.039062 275.332031 223.316406 270.226562 C 228.425781 269.949219 232.71875 266.570312 234.351562 261.945312 C 235.980469 266.570312 240.277344 269.949219 245.382812 270.226562 C 245.660156 275.332031 249.039062 279.632812 253.664062 281.261719 C 249.039062 282.894531 245.660156 287.191406 245.382812 292.300781 C 240.273438 292.578125 235.980469 295.957031 234.351562 300.582031 C 232.71875 295.957031 228.421875 292.578125 223.316406 292.300781 Z M 246.070312 293.6875 C 246.460938 293.6875 246.773438 293.375 246.773438 292.984375 C 246.773438 286.90625 251.71875 281.964844 257.792969 281.964844 C 263.867188 281.964844 268.8125 286.90625 268.8125 292.984375 C 268.8125 293.375 269.125 293.6875 269.515625 293.6875 C 275.59375 293.6875 280.535156 298.632812 280.535156 304.707031 C 280.535156 310.78125 275.59375 315.726562 269.515625 315.726562 C 269.125 315.726562 268.8125 316.039062 268.8125 316.429688 C 268.8125 322.507812 263.867188 327.449219 257.792969 327.449219 C 251.71875 327.449219 246.773438 322.507812 246.773438 316.429688 C 246.773438 316.039062 246.460938 315.726562 246.070312 315.726562 C 239.992188 315.726562 235.050781 310.78125 235.050781 304.707031 C 235.050781 298.632812 239.992188 293.6875 246.070312 293.6875 Z M 270.195312 292.300781 C 269.917969 287.191406 266.539062 282.894531 261.914062 281.261719 C 266.539062 279.632812 269.917969 275.332031 270.195312 270.226562 C 275.304688 269.949219 279.597656 266.570312 281.230469 261.945312 C 282.859375 266.570312 287.160156 269.949219 292.261719 270.226562 C 292.539062 275.332031 295.917969 279.632812 300.542969 281.261719 C 295.917969 282.894531 292.539062 287.191406 292.261719 292.300781 C 287.15625 292.578125 282.859375 295.957031 281.230469 300.582031 C 279.597656 295.957031 275.300781 292.578125 270.195312 292.300781 Z M 292.949219 293.6875 C 293.339844 293.6875 293.65625 293.375 293.65625 292.984375 C 293.65625 286.90625 298.597656 281.964844 304.671875 281.964844 C 310.75 281.964844 315.691406 286.90625 315.691406 292.984375 C 315.691406 293.375 316.007812 293.6875 316.398438 293.6875 C 322.472656 293.6875 327.414062 298.632812 327.414062 304.707031 C 327.414062 310.78125 322.472656 315.726562 316.398438 315.726562 C 316.007812 315.726562 315.691406 316.039062 315.691406 316.429688 C 315.691406 322.507812 310.75 327.449219 304.671875 327.449219 C 298.597656 327.449219 293.65625 322.507812 293.65625 316.429688 C 293.65625 316.039062 293.339844 315.726562 292.949219 315.726562 C 286.875 315.726562 281.929688 310.78125 281.929688 304.707031 C 281.929688 298.632812 286.875 293.6875 292.949219 293.6875 Z M 317.074219 292.300781 C 316.796875 287.191406 313.417969 282.894531 308.792969 281.261719 C 313.417969 279.632812 316.796875 275.332031 317.074219 270.226562 C 322.183594 269.949219 326.476562 266.570312 328.109375 261.945312 C 329.742188 266.570312 334.039062 269.949219 339.144531 270.226562 C 339.421875 275.332031 342.800781 279.632812 347.421875 281.261719 C 342.800781 282.894531 339.421875 287.191406 339.144531 292.300781 C 334.035156 292.578125 329.742188 295.957031 328.109375 300.582031 C 326.476562 295.957031 322.179688 292.578125 317.074219 292.300781 Z M 328.109375 253.703125 C 326.476562 249.078125 322.179688 245.699219 317.074219 245.421875 C 316.796875 240.3125 313.417969 236.015625 308.792969 234.382812 C 313.417969 232.753906 316.796875 228.453125 317.074219 223.347656 C 322.183594 223.070312 326.476562 219.6875 328.109375 215.066406 C 329.742188 219.6875 334.039062 223.070312 339.144531 223.347656 C 339.421875 228.453125 342.800781 232.753906 347.421875 234.382812 C 342.800781 236.015625 339.421875 240.3125 339.144531 245.421875 C 334.035156 245.699219 329.742188 249.078125 328.109375 253.703125 Z M 328.109375 206.820312 C 326.476562 202.199219 322.179688 198.820312 317.074219 198.542969 C 316.796875 193.433594 313.417969 189.140625 308.792969 187.503906 C 313.417969 185.871094 316.796875 181.578125 317.074219 176.46875 C 322.183594 176.191406 326.476562 172.8125 328.109375 168.1875 C 329.742188 172.8125 334.039062 176.191406 339.144531 176.46875 C 339.421875 181.578125 342.800781 185.871094 347.421875 187.503906 C 342.800781 189.136719 339.421875 193.433594 339.144531 198.542969 C 334.035156 198.820312 329.742188 202.199219 328.109375 206.820312 Z M 328.109375 159.941406 C 326.476562 155.316406 322.179688 151.9375 317.074219 151.660156 C 316.796875 146.554688 313.417969 142.257812 308.792969 140.628906 C 313.417969 138.996094 316.796875 134.703125 317.074219 129.59375 C 322.183594 129.316406 326.476562 125.9375 328.109375 121.3125 C 329.742188 125.9375 334.039062 129.316406 339.144531 129.59375 C 339.421875 134.703125 342.800781 138.996094 347.421875 140.628906 C 342.800781 142.257812 339.421875 146.554688 339.144531 151.660156 C 334.035156 151.9375 329.742188 155.316406 328.109375 159.941406 Z M 328.109375 113.0625 C 326.476562 108.4375 322.179688 105.058594 317.074219 104.78125 C 316.796875 99.671875 313.417969 95.378906 308.792969 93.75 C 313.417969 92.117188 316.796875 87.824219 317.074219 82.714844 C 322.183594 82.4375 326.476562 79.058594 328.109375 74.433594 C 329.742188 79.058594 334.039062 82.4375 339.144531 82.714844 C 339.421875 87.824219 342.800781 92.117188 347.421875 93.75 C 342.800781 95.378906 339.421875 99.671875 339.144531 104.78125 C 334.035156 105.058594 329.742188 108.4375 328.109375 113.0625 Z M 292.949219 12.410156 C 293.339844 12.410156 293.65625 12.09375 293.65625 11.703125 C 293.65625 5.628906 298.597656 0.6875 304.671875 0.6875 C 310.75 0.6875 315.691406 5.628906 315.691406 11.703125 C 315.691406 12.09375 316.007812 12.410156 316.398438 12.410156 C 322.472656 12.410156 327.414062 17.351562 327.414062 23.429688 C 327.414062 29.503906 322.472656 34.445312 316.398438 34.445312 C 316.007812 34.445312 315.691406 34.761719 315.691406 35.152344 C 315.691406 41.226562 310.75 46.171875 304.671875 46.171875 C 298.597656 46.171875 293.65625 41.226562 293.65625 35.152344 C 293.65625 34.761719 293.339844 34.445312 292.949219 34.445312 C 286.875 34.445312 281.929688 29.503906 281.929688 23.429688 C 281.929688 17.351562 286.875 12.410156 292.949219 12.410156 Z M 292.261719 35.832031 C 292.539062 40.9375 295.917969 45.234375 300.542969 46.863281 C 295.917969 48.496094 292.539062 52.789062 292.261719 57.898438 C 287.15625 58.175781 282.859375 61.554688 281.230469 66.179688 C 279.597656 61.554688 275.300781 58.175781 270.195312 57.898438 C 269.917969 52.789062 266.539062 48.496094 261.914062 46.863281 C 266.539062 45.234375 269.917969 40.9375 270.195312 35.832031 C 275.304688 35.554688 279.597656 32.175781 281.230469 27.550781 C 282.859375 32.175781 287.160156 35.554688 292.261719 35.832031 Z M 246.070312 12.410156 C 246.460938 12.410156 246.773438 12.09375 246.773438 11.703125 C 246.773438 5.628906 251.71875 0.6875 257.792969 0.6875 C 263.867188 0.6875 268.8125 5.628906 268.8125 11.703125 C 268.8125 12.09375 269.125 12.410156 269.515625 12.410156 C 275.59375 12.410156 280.535156 17.351562 280.535156 23.429688 C 280.535156 29.503906 275.59375 34.445312 269.515625 34.445312 C 269.125 34.445312 268.8125 34.761719 268.8125 35.152344 C 268.8125 41.226562 263.867188 46.171875 257.792969 46.171875 C 251.71875 46.171875 246.773438 41.226562 246.773438 35.152344 C 246.773438 34.761719 246.460938 34.445312 246.070312 34.445312 C 239.992188 34.445312 235.050781 29.503906 235.050781 23.429688 C 235.050781 17.351562 239.992188 12.410156 246.070312 12.410156 Z M 245.382812 35.832031 C 245.660156 40.9375 249.039062 45.234375 253.664062 46.863281 C 249.039062 48.496094 245.660156 52.789062 245.382812 57.898438 C 240.273438 58.175781 235.980469 61.554688 234.351562 66.179688 C 232.71875 61.554688 228.421875 58.175781 223.316406 57.898438 C 223.039062 52.789062 219.660156 48.496094 215.035156 46.863281 C 219.660156 45.234375 223.039062 40.9375 223.316406 35.832031 C 228.425781 35.554688 232.71875 32.175781 234.351562 27.550781 C 235.980469 32.175781 240.277344 35.554688 245.382812 35.832031 Z M 199.191406 12.410156 C 199.578125 12.410156 199.894531 12.09375 199.894531 11.703125 C 199.894531 5.628906 204.839844 0.6875 210.914062 0.6875 C 216.988281 0.6875 221.933594 5.628906 221.933594 11.703125 C 221.933594 12.09375 222.246094 12.410156 222.636719 12.410156 C 228.710938 12.410156 233.65625 17.351562 233.65625 23.429688 C 233.65625 29.503906 228.710938 34.445312 222.636719 34.445312 C 222.246094 34.445312 221.933594 34.761719 221.933594 35.152344 C 221.933594 41.226562 216.988281 46.171875 210.914062 46.171875 C 204.839844 46.171875 199.894531 41.226562 199.894531 35.152344 C 199.894531 34.761719 199.578125 34.445312 199.191406 34.445312 C 193.113281 34.445312 188.171875 29.503906 188.171875 23.429688 C 188.171875 17.351562 193.113281 12.410156 199.191406 12.410156 Z M 198.503906 35.832031 C 198.78125 40.9375 202.160156 45.234375 206.785156 46.863281 C 202.160156 48.496094 198.78125 52.789062 198.503906 57.898438 C 193.394531 58.175781 189.101562 61.554688 187.46875 66.179688 C 185.839844 61.554688 181.542969 58.175781 176.4375 57.898438 C 176.160156 52.789062 172.78125 48.496094 168.15625 46.863281 C 172.78125 45.234375 176.160156 40.9375 176.4375 35.832031 C 181.542969 35.554688 185.839844 32.175781 187.46875 27.550781 C 189.101562 32.175781 193.398438 35.554688 198.503906 35.832031 Z M 152.308594 12.410156 C 152.699219 12.410156 153.015625 12.09375 153.015625 11.703125 C 153.015625 5.628906 157.957031 0.6875 164.035156 0.6875 C 170.109375 0.6875 175.050781 5.628906 175.050781 11.703125 C 175.050781 12.09375 175.367188 12.410156 175.757812 12.410156 C 181.832031 12.410156 186.777344 17.351562 186.777344 23.429688 C 186.777344 29.503906 181.832031 34.445312 175.757812 34.445312 C 175.367188 34.445312 175.050781 34.761719 175.050781 35.152344 C 175.050781 41.226562 170.109375 46.171875 164.035156 46.171875 C 157.957031 46.171875 153.015625 41.226562 153.015625 35.152344 C 153.015625 34.761719 152.699219 34.445312 152.308594 34.445312 C 146.234375 34.445312 141.292969 29.503906 141.292969 23.429688 C 141.292969 17.351562 146.234375 12.410156 152.308594 12.410156 Z M 151.625 35.832031 C 151.902344 40.9375 155.28125 45.234375 159.90625 46.863281 C 155.28125 48.496094 151.902344 52.789062 151.625 57.898438 C 146.515625 58.175781 142.222656 61.554688 140.589844 66.179688 C 138.957031 61.554688 134.664062 58.175781 129.558594 57.898438 C 129.277344 52.789062 125.898438 48.496094 121.277344 46.863281 C 125.898438 45.234375 129.277344 40.9375 129.558594 35.832031 C 134.664062 35.554688 138.957031 32.175781 140.589844 27.550781 C 142.222656 32.175781 146.515625 35.554688 151.625 35.832031 Z M 105.429688 12.410156 C 105.820312 12.410156 106.136719 12.09375 106.136719 11.703125 C 106.136719 5.628906 111.078125 0.6875 117.152344 0.6875 C 123.230469 0.6875 128.171875 5.628906 128.171875 11.703125 C 128.171875 12.09375 128.488281 12.410156 128.878906 12.410156 C 134.953125 12.410156 139.898438 17.351562 139.898438 23.429688 C 139.898438 29.503906 134.953125 34.445312 128.878906 34.445312 C 128.488281 34.445312 128.171875 34.761719 128.171875 35.152344 C 128.171875 41.226562 123.230469 46.171875 117.152344 46.171875 C 111.078125 46.171875 106.136719 41.226562 106.136719 35.152344 C 106.136719 34.761719 105.820312 34.445312 105.429688 34.445312 C 99.355469 34.445312 94.410156 29.503906 94.410156 23.429688 C 94.410156 17.351562 99.355469 12.410156 105.429688 12.410156 Z M 104.746094 35.832031 C 105.023438 40.9375 108.402344 45.234375 113.023438 46.863281 C 108.402344 48.496094 105.023438 52.789062 104.746094 57.898438 C 99.636719 58.175781 95.34375 61.554688 93.710938 66.179688 C 92.078125 61.554688 87.785156 58.175781 82.675781 57.898438 C 82.398438 52.789062 79.019531 48.496094 74.394531 46.863281 C 79.019531 45.234375 82.398438 40.9375 82.675781 35.832031 C 87.785156 35.554688 92.078125 32.175781 93.710938 27.550781 C 95.34375 32.175781 99.636719 35.554688 104.746094 35.832031 Z M 58.550781 12.410156 C 58.941406 12.410156 59.257812 12.09375 59.257812 11.703125 C 59.257812 5.628906 64.199219 0.6875 70.273438 0.6875 C 76.351562 0.6875 81.292969 5.628906 81.292969 11.703125 C 81.292969 12.09375 81.609375 12.410156 82 12.410156 C 88.074219 12.410156 93.015625 17.351562 93.015625 23.429688 C 93.015625 29.503906 88.074219 34.445312 82 34.445312 C 81.609375 34.445312 81.292969 34.761719 81.292969 35.152344 C 81.292969 41.226562 76.351562 46.171875 70.273438 46.171875 C 64.199219 46.171875 59.257812 41.226562 59.257812 35.152344 C 59.257812 34.761719 58.941406 34.445312 58.550781 34.445312 C 52.476562 34.445312 47.53125 29.503906 47.53125 23.429688 C 47.53125 17.351562 52.476562 12.410156 58.550781 12.410156 Z M 57.863281 35.832031 C 58.140625 40.9375 61.519531 45.234375 66.144531 46.863281 C 61.519531 48.496094 58.140625 52.789062 57.863281 57.898438 C 52.757812 58.175781 48.460938 61.554688 46.832031 66.179688 C 45.199219 61.554688 40.90625 58.175781 35.796875 57.898438 C 35.519531 52.789062 32.140625 48.496094 27.515625 46.863281 C 32.140625 45.234375 35.519531 40.9375 35.796875 35.832031 C 40.90625 35.554688 45.199219 32.175781 46.832031 27.550781 C 48.460938 32.175781 52.757812 35.554688 57.863281 35.832031 Z M 12.371094 35.144531 C 12.371094 34.753906 12.058594 34.441406 11.667969 34.441406 C 5.59375 34.441406 0.648438 29.496094 0.648438 23.421875 C 0.648438 17.34375 5.59375 12.402344 11.667969 12.402344 C 12.058594 12.402344 12.371094 12.085938 12.371094 11.699219 C 12.371094 5.621094 17.316406 0.679688 23.390625 0.679688 C 29.464844 0.679688 34.410156 5.621094 34.410156 11.699219 C 34.410156 12.085938 34.726562 12.402344 35.113281 12.402344 C 41.191406 12.402344 46.132812 17.34375 46.132812 23.421875 C 46.132812 29.496094 41.191406 34.441406 35.113281 34.441406 C 34.726562 34.441406 34.410156 34.753906 34.410156 35.144531 C 34.410156 41.21875 29.464844 46.164062 23.390625 46.164062 C 17.316406 46.164062 12.371094 41.21875 12.371094 35.144531 Z M 12.371094 82.023438 C 12.371094 81.632812 12.058594 81.320312 11.667969 81.320312 C 5.59375 81.320312 0.648438 76.375 0.648438 70.300781 C 0.648438 64.226562 5.59375 59.28125 11.667969 59.28125 C 12.058594 59.28125 12.371094 58.96875 12.371094 58.578125 C 12.371094 52.5 17.316406 47.558594 23.390625 47.558594 C 29.464844 47.558594 34.410156 52.5 34.410156 58.578125 C 34.410156 58.96875 34.726562 59.28125 35.113281 59.28125 C 41.191406 59.28125 46.132812 64.226562 46.132812 70.300781 C 46.132812 76.375 41.191406 81.320312 35.113281 81.320312 C 34.726562 81.320312 34.410156 81.632812 34.410156 82.023438 C 34.410156 88.101562 29.464844 93.042969 23.390625 93.042969 C 17.316406 93.042969 12.371094 88.101562 12.371094 82.023438 Z M 12.371094 128.902344 C 12.371094 128.515625 12.058594 128.199219 11.667969 128.199219 C 5.59375 128.199219 0.648438 123.257812 0.648438 117.179688 C 0.648438 111.105469 5.59375 106.160156 11.667969 106.160156 C 12.058594 106.160156 12.371094 105.847656 12.371094 105.457031 C 12.371094 99.382812 17.316406 94.4375 23.390625 94.4375 C 29.464844 94.4375 34.410156 99.382812 34.410156 105.457031 C 34.410156 105.847656 34.726562 106.160156 35.113281 106.160156 C 41.191406 106.160156 46.132812 111.105469 46.132812 117.179688 C 46.132812 123.257812 41.191406 128.199219 35.113281 128.199219 C 34.726562 128.199219 34.410156 128.515625 34.410156 128.902344 C 34.410156 134.980469 29.464844 139.921875 23.390625 139.921875 C 17.316406 139.921875 12.371094 134.980469 12.371094 128.902344 Z M 12.371094 175.785156 C 12.371094 175.394531 12.058594 175.078125 11.667969 175.078125 C 5.59375 175.078125 0.648438 170.136719 0.648438 164.058594 C 0.648438 157.984375 5.59375 153.042969 11.667969 153.042969 C 12.058594 153.042969 12.371094 152.726562 12.371094 152.335938 C 12.371094 146.261719 17.316406 141.316406 23.390625 141.316406 C 29.464844 141.316406 34.410156 146.261719 34.410156 152.335938 C 34.410156 152.726562 34.726562 153.042969 35.113281 153.042969 C 41.191406 153.042969 46.132812 157.984375 46.132812 164.058594 C 46.132812 170.136719 41.191406 175.078125 35.113281 175.078125 C 34.726562 175.078125 34.410156 175.394531 34.410156 175.785156 C 34.410156 181.859375 29.464844 186.800781 23.390625 186.800781 C 17.316406 186.800781 12.371094 181.859375 12.371094 175.785156 Z M 12.371094 222.664062 C 12.371094 222.273438 12.058594 221.957031 11.667969 221.957031 C 5.59375 221.957031 0.648438 217.015625 0.648438 210.941406 C 0.648438 204.863281 5.59375 199.921875 11.667969 199.921875 C 12.058594 199.921875 12.371094 199.605469 12.371094 199.214844 C 12.371094 193.140625 17.316406 188.199219 23.390625 188.199219 C 29.464844 188.199219 34.410156 193.140625 34.410156 199.214844 C 34.410156 199.605469 34.726562 199.921875 35.113281 199.921875 C 41.191406 199.921875 46.132812 204.863281 46.132812 210.941406 C 46.132812 217.015625 41.191406 221.957031 35.113281 221.957031 C 34.726562 221.957031 34.410156 222.273438 34.410156 222.664062 C 34.410156 228.738281 29.464844 233.683594 23.390625 233.683594 C 17.316406 233.683594 12.371094 228.738281 12.371094 222.664062 Z M 12.371094 269.542969 C 12.371094 269.152344 12.058594 268.839844 11.667969 268.839844 C 5.59375 268.839844 0.648438 263.894531 0.648438 257.820312 C 0.648438 251.742188 5.59375 246.800781 11.667969 246.800781 C 12.058594 246.800781 12.371094 246.484375 12.371094 246.097656 C 12.371094 240.019531 17.316406 235.078125 23.390625 235.078125 C 29.464844 235.078125 34.410156 240.019531 34.410156 246.097656 C 34.410156 246.484375 34.726562 246.800781 35.113281 246.800781 C 41.191406 246.800781 46.132812 251.742188 46.132812 257.820312 C 46.132812 263.894531 41.191406 268.839844 35.113281 268.839844 C 34.726562 268.839844 34.410156 269.152344 34.410156 269.542969 C 34.410156 275.617188 29.464844 280.5625 23.390625 280.5625 C 17.316406 280.5625 12.371094 275.617188 12.371094 269.542969 Z M 12.371094 316.421875 C 12.371094 316.03125 12.058594 315.71875 11.667969 315.71875 C 5.59375 315.71875 0.648438 310.773438 0.648438 304.699219 C 0.648438 298.625 5.59375 293.679688 11.667969 293.679688 C 12.058594 293.679688 12.371094 293.367188 12.371094 292.976562 C 12.371094 286.898438 17.316406 281.957031 23.390625 281.957031 C 29.464844 281.957031 34.410156 286.898438 34.410156 292.976562 C 34.410156 293.367188 34.726562 293.679688 35.113281 293.679688 C 41.191406 293.679688 46.132812 298.625 46.132812 304.699219 C 46.132812 310.773438 41.191406 315.71875 35.113281 315.71875 C 34.726562 315.71875 34.410156 316.03125 34.410156 316.421875 C 34.410156 322.5 29.464844 327.441406 23.390625 327.441406 C 17.316406 327.441406 12.371094 322.5 12.371094 316.421875 Z M 35.105469 362.597656 C 34.71875 362.597656 34.402344 362.914062 34.402344 363.300781 C 34.402344 369.378906 29.460938 374.320312 23.382812 374.320312 C 17.308594 374.320312 12.363281 369.378906 12.363281 363.300781 C 12.363281 362.914062 12.050781 362.597656 11.660156 362.597656 C 5.585938 362.597656 0.640625 357.65625 0.640625 351.578125 C 0.640625 345.503906 5.585938 340.558594 11.660156 340.558594 C 12.050781 340.558594 12.363281 340.246094 12.363281 339.855469 C 12.363281 333.78125 17.308594 328.835938 23.382812 328.835938 C 29.460938 328.835938 34.402344 333.78125 34.402344 339.855469 C 34.402344 340.246094 34.71875 340.558594 35.105469 340.558594 C 41.183594 340.558594 46.125 345.503906 46.125 351.578125 C 46.125 357.65625 41.183594 362.597656 35.105469 362.597656 Z M 46.828125 347.457031 C 45.195312 342.832031 40.902344 339.453125 35.792969 339.175781 C 35.515625 334.070312 32.136719 329.769531 27.511719 328.140625 C 32.136719 326.507812 35.515625 322.210938 35.792969 317.101562 C 40.902344 316.824219 45.195312 313.445312 46.828125 308.820312 C 48.457031 313.445312 52.753906 316.824219 57.859375 317.101562 C 58.136719 322.210938 61.515625 326.507812 66.140625 328.140625 C 61.515625 329.769531 58.136719 334.070312 57.859375 339.175781 C 52.753906 339.453125 48.457031 342.832031 46.828125 347.457031 Z M 81.988281 362.597656 C 81.597656 362.597656 81.28125 362.914062 81.28125 363.300781 C 81.28125 369.378906 76.339844 374.320312 70.261719 374.320312 C 64.1875 374.320312 59.246094 369.378906 59.246094 363.300781 C 59.246094 362.914062 58.929688 362.597656 58.539062 362.597656 C 52.464844 362.597656 47.519531 357.65625 47.519531 351.578125 C 47.519531 345.503906 52.464844 340.558594 58.539062 340.558594 C 58.929688 340.558594 59.246094 340.246094 59.246094 339.855469 C 59.246094 333.78125 64.1875 328.835938 70.261719 328.835938 C 76.339844 328.835938 81.28125 333.78125 81.28125 339.855469 C 81.28125 340.246094 81.597656 340.558594 81.988281 340.558594 C 88.0625 340.558594 93.003906 345.503906 93.003906 351.578125 C 93.003906 357.65625 88.0625 362.597656 81.988281 362.597656 Z M 93.707031 347.457031 C 92.074219 342.832031 87.78125 339.453125 82.671875 339.175781 C 82.394531 334.070312 79.015625 329.769531 74.390625 328.140625 C 79.015625 326.507812 82.394531 322.210938 82.671875 317.101562 C 87.78125 316.824219 92.074219 313.445312 93.707031 308.820312 C 95.339844 313.445312 99.632812 316.824219 104.742188 317.101562 C 105.019531 322.210938 108.398438 326.507812 113.019531 328.140625 C 108.398438 329.769531 105.019531 334.070312 104.742188 339.175781 C 99.632812 339.453125 95.339844 342.832031 93.707031 347.457031 Z M 128.867188 362.597656 C 128.476562 362.597656 128.160156 362.914062 128.160156 363.300781 C 128.160156 369.378906 123.21875 374.320312 117.144531 374.320312 C 111.066406 374.320312 106.125 369.378906 106.125 363.300781 C 106.125 362.914062 105.808594 362.597656 105.417969 362.597656 C 99.34375 362.597656 94.402344 357.65625 94.402344 351.578125 C 94.402344 345.503906 99.34375 340.558594 105.417969 340.558594 C 105.808594 340.558594 106.125 340.246094 106.125 339.855469 C 106.125 333.78125 111.066406 328.835938 117.144531 328.835938 C 123.21875 328.835938 128.160156 333.78125 128.160156 339.855469 C 128.160156 340.246094 128.476562 340.558594 128.867188 340.558594 C 134.941406 340.558594 139.886719 345.503906 139.886719 351.578125 C 139.886719 357.65625 134.941406 362.597656 128.867188 362.597656 Z M 140.585938 347.457031 C 138.957031 342.832031 134.660156 339.453125 129.554688 339.175781 C 129.277344 334.070312 125.894531 329.769531 121.273438 328.140625 C 125.894531 326.507812 129.277344 322.210938 129.554688 317.101562 C 134.660156 316.824219 138.957031 313.445312 140.585938 308.820312 C 142.21875 313.445312 146.511719 316.824219 151.621094 317.101562 C 151.898438 322.210938 155.277344 326.507812 159.902344 328.140625 C 155.277344 329.769531 151.898438 334.070312 151.621094 339.175781 C 146.511719 339.453125 142.21875 342.832031 140.585938 347.457031 Z M 175.746094 362.597656 C 175.355469 362.597656 175.042969 362.914062 175.042969 363.300781 C 175.042969 369.378906 170.097656 374.320312 164.023438 374.320312 C 157.945312 374.320312 153.003906 369.378906 153.003906 363.300781 C 153.003906 362.914062 152.6875 362.597656 152.300781 362.597656 C 146.222656 362.597656 141.28125 357.65625 141.28125 351.578125 C 141.28125 345.503906 146.222656 340.558594 152.300781 340.558594 C 152.6875 340.558594 153.003906 340.246094 153.003906 339.855469 C 153.003906 333.78125 157.945312 328.835938 164.023438 328.835938 C 170.097656 328.835938 175.042969 333.78125 175.042969 339.855469 C 175.042969 340.246094 175.355469 340.558594 175.746094 340.558594 C 181.820312 340.558594 186.765625 345.503906 186.765625 351.578125 C 186.765625 357.65625 181.820312 362.597656 175.746094 362.597656 Z M 187.464844 347.457031 C 185.835938 342.832031 181.539062 339.453125 176.433594 339.175781 C 176.15625 334.070312 172.777344 329.769531 168.152344 328.140625 C 172.777344 326.507812 176.15625 322.210938 176.433594 317.101562 C 181.539062 316.824219 185.835938 313.445312 187.464844 308.820312 C 189.097656 313.445312 193.394531 316.824219 198.5 317.101562 C 198.777344 322.210938 202.15625 326.507812 206.78125 328.140625 C 202.15625 329.769531 198.777344 334.070312 198.5 339.175781 C 193.390625 339.453125 189.097656 342.832031 187.464844 347.457031 Z M 222.625 362.597656 C 222.234375 362.597656 221.921875 362.914062 221.921875 363.300781 C 221.921875 369.378906 216.976562 374.320312 210.902344 374.320312 C 204.828125 374.320312 199.882812 369.378906 199.882812 363.300781 C 199.882812 362.914062 199.570312 362.597656 199.179688 362.597656 C 193.101562 362.597656 188.160156 357.65625 188.160156 351.578125 C 188.160156 345.503906 193.101562 340.558594 199.179688 340.558594 C 199.570312 340.558594 199.882812 340.246094 199.882812 339.855469 C 199.882812 333.78125 204.828125 328.835938 210.902344 328.835938 C 216.976562 328.835938 221.921875 333.78125 221.921875 339.855469 C 221.921875 340.246094 222.234375 340.558594 222.625 340.558594 C 228.703125 340.558594 233.644531 345.503906 233.644531 351.578125 C 233.644531 357.65625 228.703125 362.597656 222.625 362.597656 Z M 234.347656 347.457031 C 232.714844 342.832031 228.417969 339.453125 223.3125 339.175781 C 223.035156 334.070312 219.65625 329.769531 215.03125 328.140625 C 219.65625 326.507812 223.035156 322.210938 223.3125 317.101562 C 228.421875 316.824219 232.714844 313.445312 234.347656 308.820312 C 235.976562 313.445312 240.273438 316.824219 245.378906 317.101562 C 245.65625 322.210938 249.035156 326.507812 253.660156 328.140625 C 249.035156 329.769531 245.65625 334.070312 245.378906 339.175781 C 240.273438 339.453125 235.976562 342.832031 234.347656 347.457031 Z M 269.503906 362.597656 C 269.117188 362.597656 268.800781 362.914062 268.800781 363.300781 C 268.800781 369.378906 263.859375 374.320312 257.78125 374.320312 C 251.707031 374.320312 246.761719 369.378906 246.761719 363.300781 C 246.761719 362.914062 246.449219 362.597656 246.058594 362.597656 C 239.984375 362.597656 235.039062 357.65625 235.039062 351.578125 C 235.039062 345.503906 239.984375 340.558594 246.058594 340.558594 C 246.449219 340.558594 246.761719 340.246094 246.761719 339.855469 C 246.761719 333.78125 251.707031 328.835938 257.78125 328.835938 C 263.859375 328.835938 268.800781 333.78125 268.800781 339.855469 C 268.800781 340.246094 269.117188 340.558594 269.503906 340.558594 C 275.582031 340.558594 280.523438 345.503906 280.523438 351.578125 C 280.523438 357.65625 275.582031 362.597656 269.503906 362.597656 Z M 281.226562 347.457031 C 279.59375 342.832031 275.296875 339.453125 270.191406 339.175781 C 269.914062 334.070312 266.535156 329.769531 261.910156 328.140625 C 266.535156 326.507812 269.914062 322.210938 270.191406 317.101562 C 275.300781 316.824219 279.59375 313.445312 281.226562 308.820312 C 282.855469 313.445312 287.15625 316.824219 292.257812 317.101562 C 292.535156 322.210938 295.914062 326.507812 300.539062 328.140625 C 295.914062 329.769531 292.535156 334.070312 292.257812 339.175781 C 287.152344 339.453125 282.855469 342.832031 281.226562 347.457031 Z M 316.386719 362.597656 C 315.996094 362.597656 315.679688 362.914062 315.679688 363.300781 C 315.679688 369.378906 310.738281 374.320312 304.660156 374.320312 C 298.585938 374.320312 293.644531 369.378906 293.644531 363.300781 C 293.644531 362.914062 293.328125 362.597656 292.9375 362.597656 C 286.863281 362.597656 281.917969 357.65625 281.917969 351.578125 C 281.917969 345.503906 286.863281 340.558594 292.9375 340.558594 C 293.328125 340.558594 293.644531 340.246094 293.644531 339.855469 C 293.644531 333.78125 298.585938 328.835938 304.660156 328.835938 C 310.738281 328.835938 315.679688 333.78125 315.679688 339.855469 C 315.679688 340.246094 315.996094 340.558594 316.386719 340.558594 C 322.460938 340.558594 327.402344 345.503906 327.402344 351.578125 C 327.402344 357.65625 322.460938 362.597656 316.386719 362.597656 Z M 328.105469 347.457031 C 326.472656 342.832031 322.175781 339.453125 317.070312 339.175781 C 316.792969 334.070312 313.414062 329.769531 308.789062 328.140625 C 313.414062 326.507812 316.792969 322.210938 317.070312 317.101562 C 322.179688 316.824219 326.472656 313.445312 328.105469 308.820312 C 329.738281 313.445312 334.035156 316.824219 339.140625 317.101562 C 339.417969 322.210938 342.796875 326.507812 347.417969 328.140625 C 342.796875 329.769531 339.417969 334.070312 339.140625 339.175781 C 334.03125 339.453125 329.738281 342.832031 328.105469 347.457031 Z M 362.5625 339.859375 C 362.5625 340.25 362.878906 340.5625 363.269531 340.5625 C 369.34375 340.5625 374.289062 345.507812 374.289062 351.582031 C 374.289062 357.660156 369.34375 362.601562 363.269531 362.601562 C 362.878906 362.601562 362.5625 362.917969 362.5625 363.304688 C 362.5625 369.382812 357.621094 374.324219 351.546875 374.324219 C 345.46875 374.324219 340.527344 369.382812 340.527344 363.304688 C 340.527344 362.917969 340.210938 362.601562 339.820312 362.601562 C 333.746094 362.601562 328.804688 357.660156 328.804688 351.582031 C 328.804688 345.507812 333.746094 340.5625 339.820312 340.5625 C 340.210938 340.5625 340.527344 340.25 340.527344 339.859375 C 340.527344 333.785156 345.46875 328.839844 351.546875 328.839844 C 357.621094 328.839844 362.5625 333.785156 362.5625 339.859375 Z M 362.5625 292.980469 C 362.5625 293.371094 362.878906 293.683594 363.269531 293.683594 C 369.34375 293.683594 374.289062 298.628906 374.289062 304.703125 C 374.289062 310.777344 369.34375 315.722656 363.269531 315.722656 C 362.878906 315.722656 362.5625 316.035156 362.5625 316.425781 C 362.5625 322.503906 357.621094 327.445312 351.546875 327.445312 C 345.46875 327.445312 340.527344 322.503906 340.527344 316.425781 C 340.527344 316.035156 340.210938 315.722656 339.820312 315.722656 C 333.746094 315.722656 328.804688 310.777344 328.804688 304.703125 C 328.804688 298.628906 333.746094 293.683594 339.820312 293.683594 C 340.210938 293.683594 340.527344 293.371094 340.527344 292.980469 C 340.527344 286.902344 345.46875 281.960938 351.546875 281.960938 C 357.621094 281.960938 362.5625 286.902344 362.5625 292.980469 Z M 362.5625 246.097656 C 362.5625 246.488281 362.878906 246.804688 363.269531 246.804688 C 369.34375 246.804688 374.289062 251.746094 374.289062 257.824219 C 374.289062 263.898438 369.34375 268.84375 363.269531 268.84375 C 362.878906 268.84375 362.5625 269.15625 362.5625 269.546875 C 362.5625 275.621094 357.621094 280.566406 351.546875 280.566406 C 345.46875 280.566406 340.527344 275.621094 340.527344 269.546875 C 340.527344 269.15625 340.210938 268.84375 339.820312 268.84375 C 333.746094 268.84375 328.804688 263.898438 328.804688 257.824219 C 328.804688 251.746094 333.746094 246.804688 339.820312 246.804688 C 340.210938 246.804688 340.527344 246.488281 340.527344 246.097656 C 340.527344 240.023438 345.46875 235.082031 351.546875 235.082031 C 357.621094 235.082031 362.5625 240.023438 362.5625 246.097656 Z M 362.5625 199.21875 C 362.5625 199.609375 362.878906 199.925781 363.269531 199.925781 C 369.34375 199.925781 374.289062 204.867188 374.289062 210.945312 C 374.289062 217.019531 369.34375 221.960938 363.269531 221.960938 C 362.878906 221.960938 362.5625 222.277344 362.5625 222.667969 C 362.5625 228.742188 357.621094 233.6875 351.546875 233.6875 C 345.46875 233.6875 340.527344 228.742188 340.527344 222.667969 C 340.527344 222.277344 340.210938 221.960938 339.820312 221.960938 C 333.746094 221.960938 328.804688 217.019531 328.804688 210.945312 C 328.804688 204.867188 333.746094 199.925781 339.820312 199.925781 C 340.210938 199.925781 340.527344 199.609375 340.527344 199.21875 C 340.527344 193.144531 345.46875 188.203125 351.546875 188.203125 C 357.621094 188.203125 362.5625 193.144531 362.5625 199.21875 Z M 362.5625 152.339844 C 362.5625 152.730469 362.878906 153.046875 363.269531 153.046875 C 369.34375 153.046875 374.289062 157.988281 374.289062 164.0625 C 374.289062 170.140625 369.34375 175.082031 363.269531 175.082031 C 362.878906 175.082031 362.5625 175.398438 362.5625 175.789062 C 362.5625 181.863281 357.621094 186.804688 351.546875 186.804688 C 345.46875 186.804688 340.527344 181.863281 340.527344 175.789062 C 340.527344 175.398438 340.210938 175.082031 339.820312 175.082031 C 333.746094 175.082031 328.804688 170.140625 328.804688 164.0625 C 328.804688 157.988281 333.746094 153.046875 339.820312 153.046875 C 340.210938 153.046875 340.527344 152.730469 340.527344 152.339844 C 340.527344 146.265625 345.46875 141.320312 351.546875 141.320312 C 357.621094 141.320312 362.5625 146.265625 362.5625 152.339844 Z M 362.5625 105.460938 C 362.5625 105.851562 362.878906 106.164062 363.269531 106.164062 C 369.34375 106.164062 374.289062 111.109375 374.289062 117.183594 C 374.289062 123.261719 369.34375 128.203125 363.269531 128.203125 C 362.878906 128.203125 362.5625 128.519531 362.5625 128.90625 C 362.5625 134.984375 357.621094 139.925781 351.546875 139.925781 C 345.46875 139.925781 340.527344 134.984375 340.527344 128.90625 C 340.527344 128.519531 340.210938 128.203125 339.820312 128.203125 C 333.746094 128.203125 328.804688 123.261719 328.804688 117.183594 C 328.804688 111.109375 333.746094 106.164062 339.820312 106.164062 C 340.210938 106.164062 340.527344 105.851562 340.527344 105.460938 C 340.527344 99.386719 345.46875 94.441406 351.546875 94.441406 C 357.621094 94.441406 362.5625 99.386719 362.5625 105.460938 Z M 362.5625 58.582031 C 362.5625 58.972656 362.878906 59.285156 363.269531 59.285156 C 369.34375 59.285156 374.289062 64.230469 374.289062 70.304688 C 374.289062 76.378906 369.34375 81.324219 363.269531 81.324219 C 362.878906 81.324219 362.5625 81.636719 362.5625 82.027344 C 362.5625 88.105469 357.621094 93.046875 351.546875 93.046875 C 345.46875 93.046875 340.527344 88.105469 340.527344 82.027344 C 340.527344 81.636719 340.210938 81.324219 339.820312 81.324219 C 333.746094 81.324219 328.804688 76.378906 328.804688 70.304688 C 328.804688 64.230469 333.746094 59.285156 339.820312 59.285156 C 340.210938 59.285156 340.527344 58.972656 340.527344 58.582031 C 340.527344 52.503906 345.46875 47.5625 351.546875 47.5625 C 357.621094 47.5625 362.5625 52.503906 362.5625 58.582031 Z M 363.269531 34.4375 C 362.878906 34.4375 362.5625 34.75 362.5625 35.140625 C 362.5625 41.214844 357.621094 46.160156 351.546875 46.160156 C 345.46875 46.160156 340.527344 41.214844 340.527344 35.140625 C 340.527344 34.75 340.210938 34.4375 339.820312 34.4375 C 333.746094 34.4375 328.804688 29.492188 328.804688 23.417969 C 328.804688 17.339844 333.746094 12.398438 339.820312 12.398438 C 340.210938 12.398438 340.527344 12.082031 340.527344 11.695312 C 340.527344 5.617188 345.46875 0.675781 351.546875 0.675781 C 357.621094 0.675781 362.5625 5.617188 362.5625 11.695312 C 362.5625 12.082031 362.878906 12.398438 363.269531 12.398438 C 369.34375 12.398438 374.289062 17.339844 374.289062 23.417969 C 374.289062 29.492188 369.34375 34.4375 363.269531 34.4375 Z M 363.269531 34.4375 " fill-opacity="1" fill-rule="nonzero"/></g></g></g></g></svg>